<svg width="30" height="30" viewBox="0 0 30 30" fill="none" xmlns="http://www.w3.org/2000/svg">
<path d="M18.5411 15.8863C22.9405 15.8863 26.5079 14.3018 26.5079 12.3455C26.5079 10.3892 22.9405 8.80469 18.5411 8.80469C14.1416 8.80469 10.5742 10.3892 10.5742 12.3455C10.5742 14.3018 14.1416 15.8863 18.5411 15.8863Z" stroke="#DDDDDD" stroke-width="1.2" stroke-linecap="round" stroke-linejoin="round"/>
<path d="M10.5742 12.3438V22.9662C10.5742 24.9137 14.115 26.507 18.5411 26.507C22.9671 26.507 26.5079 24.9137 26.5079 22.9662V12.3438" stroke="#DDDDDD" stroke-width="1.2" stroke-linecap="round" stroke-linejoin="round"/>
<path d="M26.5075 17.6551C26.5075 19.6025 22.9667 21.1959 18.5407 21.1959C14.1147 21.1959 10.5738 19.6025 10.5738 17.6551M18.3636 5.27814C16.2949 4.00145 13.8869 3.384 11.459 3.50773C7.05072 3.50773 3.49219 5.1011 3.49219 7.04855C3.49219 8.09309 4.51903 9.03141 6.14781 9.70417" stroke="#DDDDDD" stroke-width="1.2" stroke-linecap="round" stroke-linejoin="round"/>
<path d="M6.1478 20.325C4.51903 19.6522 3.49219 18.7139 3.49219 17.6693V7.04688" stroke="#DDDDDD" stroke-width="1.2" stroke-linecap="round" stroke-linejoin="round"/>
<path d="M6.1478 15.015C4.51903 14.3422 3.49219 13.4039 3.49219 12.3594" stroke="#DDDDDD" stroke-width="1.2" stroke-linecap="round" stroke-linejoin="round"/>
</svg>
