<svg width="30" height="30" viewBox="0 0 30 30" fill="none" xmlns="http://www.w3.org/2000/svg">
<path d="M15.7066 3.72656C16.1439 3.72633 16.5706 3.86176 16.9277 4.11417C17.2849 4.36658 17.555 4.72355 17.7008 5.13589H19.9345C20.4952 5.13589 21.0329 5.35861 21.4294 5.75506C21.8258 6.15152 22.0485 6.68922 22.0485 7.24988V12.5433C21.5994 12.3836 21.1297 12.276 20.6392 12.2206V7.24988C20.6392 7.06299 20.565 6.88376 20.4328 6.75161C20.3007 6.61946 20.1214 6.54522 19.9345 6.54522H17.7008C17.555 6.95756 17.2849 7.31453 16.9277 7.56694C16.5706 7.81935 16.1439 7.95478 15.7066 7.95455H11.4786C11.0412 7.95478 10.6146 7.81935 10.2574 7.56694C9.90024 7.31453 9.63016 6.95756 9.48437 6.54522H7.25059C7.0637 6.54522 6.88447 6.61946 6.75232 6.75161C6.62016 6.88376 6.54593 7.06299 6.54593 7.24988V24.1618C6.54593 24.3487 6.62016 24.5279 6.75232 24.6601C6.88447 24.7922 7.0637 24.8665 7.25059 24.8665H10.8937C10.733 25.3217 10.733 25.8206 10.8937 26.2758H7.25059C6.68992 26.2758 6.15222 26.0531 5.75577 25.6566C5.35932 25.2602 5.1366 24.7225 5.1366 24.1618V7.24988C5.1366 6.68922 5.35932 6.15152 5.75577 5.75506C6.15222 5.35861 6.68992 5.13589 7.25059 5.13589H9.48437C9.63016 4.72355 9.90024 4.36658 10.2574 4.11417C10.6146 3.86176 11.0412 3.72633 11.4786 3.72656H15.7066ZM11.4786 5.13589C11.2917 5.13589 11.1124 5.21013 10.9803 5.34228C10.8481 5.47443 10.7739 5.65367 10.7739 5.84055C10.7739 6.02744 10.8481 6.20668 10.9803 6.33883C11.1124 6.47098 11.2917 6.54522 11.4786 6.54522H15.7066C15.8934 6.54522 16.0727 6.47098 16.2048 6.33883C16.337 6.20668 16.4112 6.02744 16.4112 5.84055C16.4112 5.65367 16.337 5.47443 16.2048 5.34228C16.0727 5.21013 15.8934 5.13589 15.7066 5.13589H11.4786ZM15.9842 21.4785C15.2374 20.4797 14.8966 19.2352 15.0304 17.9953C15.1642 16.7554 15.7626 15.6122 16.7053 14.7958C17.648 13.9794 18.865 13.5504 20.1112 13.595C21.3575 13.6397 22.5406 14.1548 23.4224 15.0366C24.3043 15.9184 24.8193 17.1015 24.864 18.3478C24.9087 19.5941 24.4796 20.811 23.6632 21.7537C22.8468 22.6964 21.7036 23.2949 20.4637 23.4287C19.2239 23.5625 17.9793 23.2217 16.9806 22.4749L13.3868 26.0686C13.2547 26.201 13.0754 26.2754 12.8884 26.2755C12.7014 26.2756 12.522 26.2015 12.3897 26.0693C12.2574 25.9372 12.183 25.7579 12.1828 25.5709C12.1827 25.3839 12.2569 25.2046 12.389 25.0722L15.9842 21.4785ZM19.9345 22.0478C20.869 22.0478 21.7652 21.6766 22.4259 21.0159C23.0867 20.3551 23.4579 19.4589 23.4579 18.5245C23.4579 17.5901 23.0867 16.6939 22.4259 16.0331C21.7652 15.3724 20.869 15.0012 19.9345 15.0012C19.0001 15.0012 18.1039 15.3724 17.4432 16.0331C16.7824 16.6939 16.4112 17.5901 16.4112 18.5245C16.4112 19.4589 16.7824 20.3551 17.4432 21.0159C18.1039 21.6766 19.0001 22.0478 19.9345 22.0478Z" fill="#DDDDDD"/>
</svg>
