<svg width="30" height="30" viewBox="0 0 30 30" fill="none" xmlns="http://www.w3.org/2000/svg">
<path d="M13.75 24.5691L12.305 23.2666C10.405 21.5274 8.82208 20.0303 7.55625 18.7753C6.29042 17.5203 5.285 16.4041 4.54 15.4266C3.79333 14.4491 3.26667 13.5549 2.96 12.7441C2.65333 11.9332 2.5 11.1128 2.5 10.2828C2.5 8.69281 3.04 7.35906 4.12 6.28156C5.2 5.20406 6.535 4.66531 8.125 4.66531C9.225 4.66531 10.2563 4.94656 11.2188 5.50906C12.1813 6.07156 13.025 6.88948 13.75 7.96281C14.475 6.88948 15.3187 6.07156 16.2812 5.50906C17.2437 4.94656 18.275 4.6649 19.375 4.66406C20.8225 4.66406 22.0508 5.11406 23.06 6.01406C24.07 6.91406 24.6867 8.03448 24.91 9.37531H23.625C23.4267 8.35031 22.9308 7.51698 22.1375 6.87531C21.3442 6.23365 20.4233 5.91281 19.375 5.91281C18.3608 5.91281 17.44 6.19948 16.6125 6.77281C15.785 7.34615 14.9987 8.21406 14.2537 9.37656H13.2487C12.4904 8.19906 11.6958 7.32781 10.865 6.76281C10.0342 6.19781 9.12083 5.9149 8.125 5.91406C6.90583 5.91406 5.87167 6.32948 5.0225 7.16031C4.17417 7.99198 3.75 9.03281 3.75 10.2828C3.75 10.9861 3.89583 11.7003 4.1875 12.4253C4.47917 13.1503 5 13.9836 5.75 14.9253C6.5 15.867 7.52083 16.9745 8.8125 18.2478C10.1042 19.5211 11.75 21.0641 13.75 22.8766C14.3883 22.3016 15.0158 21.7332 15.6325 21.1716C16.2492 20.6116 16.8004 20.0991 17.2863 19.6341L17.4237 19.7716L17.7313 20.0803L18.0412 20.3891L18.1788 20.5266C17.6871 20.9907 17.1396 21.4941 16.5363 22.0366C15.9329 22.5791 15.32 23.1378 14.6975 23.7128L13.75 24.5691ZM22.1625 20.6266V16.8766H18.4125V15.6266H22.1625V11.8766H23.4125V15.6266H27.1625V16.8766H23.4125V20.6266H22.1625Z" fill="#DDDDDD" stroke="#DDDDDD" stroke-width="0.2"/>
</svg>
