<svg width="30" height="30" viewBox="0 0 30 30" fill="none" xmlns="http://www.w3.org/2000/svg">
<path d="M16.5538 12.833C16.6002 11.4466 17.9098 10.201 19.5082 10.201C20.1746 10.201 20.7978 10.441 21.273 10.6938C21.753 10.9498 22.153 11.2578 22.3898 11.4826C22.4661 11.5549 22.5274 11.6415 22.5702 11.7375C22.613 11.8334 22.6364 11.9369 22.6393 12.0419C22.6421 12.147 22.6242 12.2515 22.5866 12.3497C22.549 12.4478 22.4925 12.5376 22.4202 12.6138C22.3479 12.6901 22.2613 12.7514 22.1654 12.7942C22.0694 12.837 21.9659 12.8605 21.8609 12.8633C21.7558 12.8661 21.6513 12.8482 21.5532 12.8107C21.455 12.7731 21.3653 12.7165 21.289 12.6442C21.0557 12.4337 20.7976 12.2526 20.5202 12.105C20.165 11.9154 19.809 11.801 19.5082 11.801C18.6866 11.801 18.1682 12.445 18.1538 12.8866C18.1442 13.1586 18.2418 13.3834 18.5234 13.6186C18.8362 13.8786 19.3538 14.1226 20.1058 14.3322C21.1354 14.6178 21.9258 15.1594 22.3314 15.929C22.7458 16.7154 22.6834 17.5946 22.2834 18.3634C22.0766 18.7649 21.7744 19.1095 21.4034 19.367C21.0324 19.6245 20.6038 19.787 20.1554 19.8402C19.1418 19.9674 17.9834 19.5914 16.7442 18.6258C16.6613 18.5612 16.5919 18.4809 16.5401 18.3895C16.4882 18.2981 16.4549 18.1974 16.442 18.0931C16.429 17.9888 16.4368 17.8829 16.4648 17.7816C16.4927 17.6803 16.5404 17.5855 16.605 17.5026C16.6696 17.4197 16.7499 17.3504 16.8413 17.2985C16.9327 17.2467 17.0335 17.2133 17.1378 17.2004C17.2421 17.1875 17.3479 17.1952 17.4492 17.2232C17.5505 17.2512 17.6453 17.2988 17.7282 17.3634C18.7602 18.169 19.5026 18.309 19.9562 18.2522C20.1475 18.2313 20.3306 18.163 20.489 18.0537C20.6473 17.9443 20.776 17.7973 20.8634 17.6258C21.0618 17.2442 21.0474 16.9242 20.9162 16.6754C20.777 16.4114 20.4282 16.0818 19.6778 15.8738C18.8362 15.6394 18.0666 15.3194 17.4994 14.8482C16.9018 14.3506 16.5266 13.6762 16.5546 12.8338M7.86259 10.2674C8.06034 10.1907 8.28048 10.1956 8.47461 10.2811C8.66874 10.3666 8.82095 10.5257 8.89779 10.7234L11.177 16.5962C11.209 16.681 11.329 16.6818 11.3626 16.5978L13.7482 10.713C13.7858 10.6132 13.8431 10.5219 13.9165 10.4445C13.99 10.3671 14.0782 10.3052 14.176 10.2624C14.2737 10.2197 14.379 10.1969 14.4857 10.1954C14.5924 10.1939 14.6983 10.2138 14.7972 10.2539C14.8961 10.294 14.986 10.3534 15.0616 10.4288C15.1371 10.5041 15.1969 10.5938 15.2372 10.6926C15.2776 10.7913 15.2978 10.8972 15.2967 11.0039C15.2955 11.1106 15.2731 11.216 15.2306 11.3138L11.993 19.3018C11.9328 19.4504 11.8293 19.5774 11.6961 19.6664C11.5628 19.7555 11.4059 19.8024 11.2456 19.8012C11.0853 19.8 10.9291 19.7507 10.7972 19.6597C10.6653 19.5686 10.5638 19.4401 10.5058 19.2906L7.40579 11.3026C7.32902 11.1049 7.33393 10.8847 7.41944 10.6906C7.50496 10.4965 7.66487 10.3443 7.86259 10.2674Z" fill="#DDDDDD"/>
<path d="M7 3C6.47471 3 5.95457 3.10346 5.46927 3.30448C4.98396 3.5055 4.54301 3.80014 4.17157 4.17157C3.42143 4.92172 3 5.93913 3 7V23C3 24.0609 3.42143 25.0783 4.17157 25.8284C4.54301 26.1999 4.98396 26.4945 5.46927 26.6955C5.95457 26.8965 6.47471 27 7 27H23C24.0609 27 25.0783 26.5786 25.8284 25.8284C26.5786 25.0783 27 24.0609 27 23V7C27 6.47471 26.8965 5.95457 26.6955 5.46927C26.4945 4.98396 26.1999 4.54301 25.8284 4.17157C25.457 3.80014 25.016 3.5055 24.5307 3.30448C24.0454 3.10346 23.5253 3 23 3H7ZM4.6 7C4.6 6.36348 4.85286 5.75303 5.30294 5.30294C5.75303 4.85286 6.36348 4.6 7 4.6H23C23.6365 4.6 24.247 4.85286 24.6971 5.30294C25.1471 5.75303 25.4 6.36348 25.4 7V23C25.4 23.6365 25.1471 24.247 24.6971 24.6971C24.247 25.1471 23.6365 25.4 23 25.4H7C6.36348 25.4 5.75303 25.1471 5.30294 24.6971C4.85286 24.247 4.6 23.6365 4.6 23V7Z" fill="#DDDDDD"/>
</svg>
