<svg width="30" height="30" viewBox="0 0 30 30" fill="none" xmlns="http://www.w3.org/2000/svg">
<g clip-path="url(#clip0_346_4317)">
<path d="M30 14.9996C30 15.3878 29.9851 15.7727 29.9562 16.1535C29.9141 16.6995 29.8439 17.2364 29.7448 17.7643C29.7018 17.9988 29.6531 18.231 29.5986 18.4614C29.5341 18.7315 29.4631 19 29.3846 19.2643C29.2789 19.6236 29.1591 19.9771 29.027 20.3241C28.9708 20.4736 28.9113 20.6223 28.8502 20.7693C28.7535 20.9998 28.6519 21.2277 28.5446 21.4524C28.3125 21.9398 28.0547 22.4131 27.7714 22.869C27.7293 22.9392 27.6855 23.0086 27.6417 23.0772C27.1486 23.847 26.5877 24.569 25.9657 25.2339C25.9187 25.2843 25.8716 25.3347 25.8237 25.3842C24.9803 26.2631 24.0312 27.0396 22.9971 27.6921C21.8117 28.4405 20.5149 29.027 19.1363 29.4218C18.6464 29.5622 18.1459 29.6787 17.6362 29.7687C16.7805 29.9207 15.8991 30 14.9996 30C14.01 30 13.0436 29.9042 12.1085 29.7208C11.5989 29.6217 11.0983 29.497 10.6085 29.3466C9.32404 28.9543 8.11476 28.3942 7.00295 27.6921C5.96795 27.0396 5.01886 26.2631 4.17633 25.3842C4.1375 25.3438 4.09868 25.3033 4.05986 25.262C3.77901 24.963 3.51056 24.6516 3.25449 24.3302C2.93483 23.9288 2.63581 23.5108 2.35827 23.0772C2.34505 23.0565 2.33101 23.035 2.31862 23.0136C1.86844 22.3032 1.47691 21.554 1.14981 20.7693C1.09282 20.6338 1.0383 20.4967 0.987087 20.3588C0.848316 20.0003 0.72524 19.6352 0.61538 19.2643C0.536909 19 0.465872 18.7315 0.401443 18.4614C0.346926 18.231 0.298191 17.9988 0.255238 17.7643C0.156117 17.2364 0.0859054 16.6995 0.0437787 16.1535C0.0148682 15.7727 0 15.3878 0 14.9996C0 14.0555 0.0875575 13.1311 0.254412 12.2357C0.318015 11.8938 0.393183 11.5568 0.479914 11.2239C0.483218 11.2074 0.487348 11.1917 0.492304 11.176C0.493956 11.1677 0.496434 11.1594 0.498912 11.1512C0.535257 11.0116 0.57408 10.8736 0.61538 10.7357C0.686418 10.4953 0.763237 10.2574 0.846664 10.022C0.982957 9.63215 1.13494 9.25053 1.30262 8.87717C1.33979 8.79374 1.37697 8.71279 1.41496 8.63185C1.44305 8.57237 1.47196 8.51207 1.50087 8.4526C1.52978 8.3923 1.55951 8.33283 1.59008 8.27336C1.64129 8.1701 1.69415 8.0685 1.74785 7.9669C1.76271 7.93799 1.77841 7.90908 1.7941 7.88017C1.87423 7.73149 1.95683 7.58529 2.04273 7.43991C2.26493 7.05911 2.50447 6.68823 2.75889 6.32974C2.77045 6.3124 2.78284 6.29588 2.79523 6.27853C2.80267 6.26697 2.81093 6.25623 2.81919 6.24467C3.12068 5.82588 3.44365 5.42278 3.78727 5.03786C5.52025 3.08681 7.75544 1.59173 10.2905 0.754151C10.2963 0.752499 10.302 0.750021 10.3078 0.748369C10.312 0.746717 10.3169 0.745065 10.3219 0.744239C10.4169 0.71285 10.5127 0.682287 10.6085 0.653377C11.0983 0.503042 11.5989 0.377488 12.1085 0.279193C13.0444 0.0958176 14.0108 0 14.9996 0C15.5026 0 15.9991 0.0247804 16.4897 0.0735152C16.8763 0.111512 17.2587 0.164377 17.6362 0.231284C18.1459 0.321319 18.6456 0.436961 19.1363 0.57821C20.5141 0.972218 21.8117 1.55869 22.9971 2.30788C24.0312 2.96043 24.9803 3.73606 25.8228 4.61494C25.9021 4.69754 25.9806 4.78097 26.0574 4.86522C26.335 5.16754 26.5993 5.4806 26.8512 5.8044C27.1313 6.16454 27.3956 6.5379 27.6417 6.92282C27.6855 6.99138 27.7293 7.06077 27.7722 7.13098C28.1844 7.79757 28.5454 8.49968 28.8502 9.23071C28.9287 9.41986 29.0038 9.61067 29.0749 9.80313C29.1889 10.1096 29.2921 10.4202 29.3846 10.7357C29.4639 11 29.535 11.2677 29.5986 11.5386C29.6531 11.769 29.7018 12.0012 29.7448 12.2357C29.8439 12.7636 29.9149 13.3005 29.9562 13.8465C29.9851 14.2273 30 14.6114 30 14.9996Z" fill="#123C9E"/>
<path d="M29.0749 9.80315L27.5459 10.7357L26.2301 11.5386L25.0861 12.2358L22.447 13.8465L20.5554 15.0004H9.44385L9.86924 14.7411L10.1336 14.58L10.2145 14.5304L10.3079 14.4734L10.3921 14.4214L10.4937 14.3594L11.9392 13.4781L12.187 13.3261L12.4514 13.165L12.5703 13.0932L12.6207 13.0618L12.6612 13.037L12.8536 12.9197L13.0717 12.7867L14.3462 12.0086L14.4396 11.9516L14.7807 11.7443L14.8328 11.7121L15.0021 11.6088L15.1367 11.527L15.4828 11.3156L16.4889 10.7018L17.6354 10.003L18.9009 9.23072L19.1355 9.08782L22.684 6.92283L26.0566 4.86523C26.3342 5.16756 26.5985 5.48061 26.8504 5.80441C27.1305 6.16455 27.3948 6.53791 27.6409 6.92283C27.6847 6.99139 27.7285 7.06078 27.7714 7.13099C28.1836 7.79758 28.5446 8.4997 28.8494 9.23072C28.9279 9.41988 29.003 9.61068 29.0741 9.80315H29.0749Z" fill="white"/>
<path d="M27.7723 7.13078L24.3303 9.23051L21.8621 10.7355L20.5471 11.5384L19.4031 12.2355L17.4958 13.3994L16.764 13.8463L16.4898 14.014L15.169 14.8185L15.0219 14.9085L14.8724 15.0002H11.7773L13.1064 14.1891L15.9471 12.4553L16.4889 12.1257L17.4512 11.5384L17.6354 11.4261L19.1355 10.5108L21.2344 9.23051L25.0175 6.92262L26.8504 5.8042C27.1305 6.16434 27.3948 6.5377 27.6409 6.92262C27.6847 6.99118 27.7285 7.06057 27.7715 7.13078H27.7723Z" fill="#FF0028"/>
<path d="M20.5553 15.2004L20.5008 15.2334L19.4253 15.8901L17.8774 16.8334L17.6593 16.9664L16.2609 17.8197L16.2543 17.8238L15.0359 18.5672L12.1085 20.3522H12.1077L10.6085 21.2675L4.05983 25.2621C3.77899 24.963 3.51053 24.6516 3.25447 24.3303C2.9348 23.9289 2.63578 23.5109 2.35824 23.0773C2.34503 23.0566 2.33099 23.0351 2.31859 23.0136C1.86842 22.3033 1.47689 21.5541 1.14979 20.7694C1.09279 20.6339 1.03827 20.4968 0.987061 20.3588L2.78034 19.2644H2.78199L5.23938 17.7643H5.24103L9.3901 15.2334L9.48014 15.1781L9.77089 15.0005H9.77254H9.81632L11.3899 15.0302L14.5816 15.0889L15.0301 15.0971H15.0318L15.2878 15.1021L18.2235 15.1566L18.2904 15.1583L20.443 15.1979L20.5553 15.2004Z" fill="white"/>
<path d="M18.297 15.154L18.2904 15.1582L18.2582 15.178L16.7111 16.1221H16.7102L16.4922 16.2551L14.9451 17.1993L13.8696 17.8551L13.8473 17.8683L12.1085 18.9289H12.1077L10.6085 19.845L3.25448 24.3302C2.93481 23.9288 2.63579 23.5108 2.35825 23.0772C2.34504 23.0565 2.33099 23.035 2.3186 23.0136L8.46332 19.2643H8.46497L10.9224 17.7643H10.924L12.2308 16.9663L12.3216 16.911H12.3225L13.3979 16.2551L14.9451 15.311L15.1631 15.178H15.1639L15.2878 15.102L15.3019 15.0938L18.2169 15.1532H18.297V15.154Z" fill="#FF0028"/>
<path d="M29.027 20.3241C28.9708 20.4737 28.9114 20.6223 28.8502 20.7694C28.7536 20.9998 28.652 21.2278 28.5446 21.4525C28.3125 21.9398 28.0548 22.4131 27.7715 22.8691C27.7293 22.9393 27.6856 23.0087 27.6418 23.0773C27.1486 23.8471 26.5878 24.569 25.9658 25.234L22.4296 23.0773L19.1363 21.0676L18.6465 20.7694L17.6363 20.1523L15.036 18.5672L14.8633 18.4615L13.8903 17.8676L13.8705 17.8552L12.3234 16.9111H12.3225L11.081 16.1536L9.842 15.3978L9.81309 15.3813L9.7941 15.3689L9.48104 15.1781L9.18945 15.0005H20.301L22.1917 16.1536L24.8317 17.7643L25.9749 18.4615L27.2907 19.2644L29.0278 20.3241H29.027Z" fill="white"/>
<path d="M28.5446 21.4525C28.3125 21.9398 28.0548 22.4131 27.7715 22.8691L24.3286 20.7694L21.8613 19.2644L20.5463 18.4615L19.4048 17.7652H19.4023L17.8775 16.8334L16.7632 16.1536L16.7111 16.1222H16.7103L16.4898 15.9867L15.316 15.2714L15.2185 15.2119L15.164 15.1781H15.1632L15.0319 15.098H15.0302L14.8724 15.0005H17.9667L18.217 15.1533L18.2236 15.1566L18.2583 15.1781L19.4254 15.8901L19.8574 16.1536L22.409 17.7098L22.4974 17.7643L23.6406 18.4615L24.9564 19.2644L27.4237 20.7694L28.5446 21.4525Z" fill="#FF0028"/>
<path d="M24.4971 17.6711L22.4089 17.71L19.4857 17.7637H19.4452L19.4047 17.7653L17.6362 17.7983L16.2543 17.824L13.8903 17.8677H13.8473L13.7135 17.871L12.2308 16.9666L9.39014 15.2336L4.47618 12.236L2.01714 10.7359L0.84668 10.0223C0.982972 9.63238 1.13496 9.25076 1.30264 8.8774C1.33981 8.79397 1.37698 8.71302 1.41498 8.63207C1.44306 8.5726 1.47197 8.5123 1.50088 8.45283C1.52979 8.39253 1.55953 8.33306 1.59009 8.27358C1.64131 8.17033 1.69417 8.06873 1.74786 7.96713C1.76273 7.93822 1.77842 7.90931 1.79412 7.8804C1.87424 7.73172 1.95684 7.58551 2.04275 7.44013C2.26495 7.05934 2.50449 6.68846 2.7589 6.32997C2.77047 6.31263 2.78286 6.29611 2.79525 6.27876C2.80268 6.26719 2.81094 6.25646 2.8192 6.24489C3.1207 5.8261 3.44367 5.42301 3.78729 5.03809L10.6085 9.19872L12.1077 10.1139H12.1086L14.7815 11.7445L15.947 12.4557L17.495 13.3998L20.1176 14.9998H20.1192L20.4422 15.1981L20.5 15.2336L24.4963 17.6711H24.4971Z" fill="white"/>
<path d="M18.9669 17.7643L17.6362 17.7915L16.2609 17.8196L15.9726 17.8254L14.9451 17.1993L13.398 16.2552L11.3899 15.0302L11.342 15.0004H11.3404L10.3929 14.4214L6.8105 12.2358L4.35146 10.7357L1.30347 8.87721C1.34064 8.79378 1.37781 8.71283 1.4158 8.63188C1.44389 8.57241 1.4728 8.51211 1.50171 8.45263C1.53062 8.39234 1.56036 8.33286 1.59092 8.27339C1.64213 8.17014 1.695 8.06854 1.74869 7.96694C1.76356 7.93803 1.77925 7.90912 1.79495 7.88021C1.87507 7.73152 1.95767 7.58532 2.04358 7.43994L7.44653 10.7357L9.90558 12.2358L11.9409 13.4781L13.1072 14.1893L14.4363 14.9996H14.4379L14.5825 15.0888L14.9459 15.311L16.493 16.2552L17.6602 16.9664L18.9669 17.7635H18.9678L18.9669 17.7643Z" fill="#FF0028"/>
<path d="M30 14.9996C30 15.3878 29.9851 15.7727 29.9562 16.1535C29.9141 16.6995 29.8439 17.2364 29.7448 17.7643C29.7018 17.9988 29.6531 18.231 29.5986 18.4614C29.5341 18.7315 29.4631 19 29.3846 19.2643H19.1363V29.4218C18.6464 29.5622 18.1459 29.6787 17.6362 29.7687C16.7805 29.9207 15.8991 30 14.9996 30C14.01 30 13.0436 29.9042 12.1085 29.7208C11.5989 29.6217 11.0983 29.497 10.6085 29.3466V19.2643H0.61538C0.536909 19 0.465872 18.7315 0.401443 18.4614C0.346926 18.231 0.298191 17.9988 0.255238 17.7643C0.156117 17.2364 0.0859054 16.6995 0.0437787 16.1535C0.0148682 15.7727 0 15.3878 0 14.9996C0 14.0555 0.0875575 13.1311 0.254412 12.2357C0.318015 11.8938 0.393183 11.5568 0.479914 11.2239C0.483218 11.2074 0.487348 11.1917 0.492304 11.176C0.493956 11.1677 0.496434 11.1594 0.498912 11.1512C0.535257 11.0116 0.57408 10.8736 0.61538 10.7357H10.6085V0.653377C11.0983 0.503042 11.5989 0.377488 12.1085 0.279193C13.0444 0.0958176 14.0108 0 14.9996 0C15.5026 0 15.9991 0.0247804 16.4897 0.0735152C16.8763 0.111512 17.2587 0.164377 17.6362 0.231284C18.1459 0.321319 18.6456 0.436961 19.1363 0.57821V10.7357H29.3846C29.4639 11 29.535 11.2677 29.5986 11.5386C29.6531 11.769 29.7018 12.0012 29.7448 12.2357C29.8439 12.7636 29.9149 13.3005 29.9562 13.8465C29.9851 14.2273 30 14.6114 30 14.9996Z" fill="white"/>
<path d="M30 14.9996C30 15.3878 29.9851 15.7727 29.9562 16.1535C29.9141 16.6995 29.8439 17.2364 29.7448 17.7643H17.6362V29.7687C16.7805 29.9207 15.8991 30 14.9996 30C14.01 30 13.0436 29.9042 12.1085 29.7208V17.7643H0.255238C0.156117 17.2364 0.0859054 16.6995 0.0437787 16.1535C0.0148682 15.7727 0 15.3878 0 14.9996C0 14.0555 0.0875575 13.1311 0.254412 12.2357H12.1085V0.279193C13.0444 0.0958176 14.0108 0 14.9996 0C15.5026 0 15.9991 0.0247804 16.4897 0.0735152C16.8763 0.111512 17.2587 0.164377 17.6362 0.231284V12.2357H29.7448C29.8439 12.7636 29.9149 13.3005 29.9562 13.8465C29.9851 14.2273 30 14.6114 30 14.9996Z" fill="#FF0028"/>
</g>
<defs>
<clipPath id="clip0_346_4317">
<rect width="30" height="30" fill="white"/>
</clipPath>
</defs>
</svg>
