<svg width="30" height="30" viewBox="0 0 30 30" fill="none" xmlns="http://www.w3.org/2000/svg">
<path d="M30 14.9996C30 15.3878 29.9851 15.7727 29.9562 16.1535C29.9141 16.6995 29.8439 17.2364 29.7448 17.7643C29.7018 17.9988 29.6531 18.231 29.5986 18.4614C29.5341 18.7315 29.4631 19 29.3846 19.2643C29.2789 19.6236 29.1591 19.9771 29.027 20.3241C28.9708 20.4736 28.9113 20.6223 28.8502 20.7693C28.7535 20.9998 28.6519 21.2277 28.5446 21.4524C28.3125 21.9398 28.0547 22.4131 27.7714 22.869C27.7293 22.9392 27.6855 23.0086 27.6417 23.0772C27.1486 23.847 26.5877 24.569 25.9657 25.2339C25.9187 25.2843 25.8716 25.3347 25.8237 25.3842C24.9803 26.2631 24.0312 27.0396 22.9971 27.6921C21.8117 28.4405 20.5149 29.027 19.1363 29.4218C18.6464 29.5622 18.1459 29.6787 17.6362 29.7687C16.7805 29.9207 15.8991 30 14.9996 30C14.01 30 13.0436 29.9042 12.1085 29.7208C11.5989 29.6217 11.0983 29.497 10.6085 29.3466C9.32404 28.9543 8.11476 28.3942 7.00295 27.6921C5.96795 27.0396 5.01886 26.2631 4.17633 25.3842C4.1375 25.3438 4.09868 25.3033 4.05986 25.262C3.77901 24.963 3.51056 24.6516 3.25449 24.3302C2.93483 23.9288 2.63581 23.5108 2.35827 23.0772C2.34505 23.0565 2.33101 23.035 2.31862 23.0136V23.0127C1.86844 22.3032 1.47691 21.554 1.14981 20.7693C1.09282 20.6338 1.0383 20.4967 0.987087 20.3588C0.848316 20.0003 0.72524 19.6352 0.61538 19.2643C0.536909 19 0.465872 18.7315 0.401443 18.4614C0.346926 18.231 0.298191 17.9988 0.255238 17.7643C0.156117 17.2364 0.0859054 16.6995 0.0437787 16.1535C0.0148682 15.7727 0 15.3878 0 14.9996C0 14.0555 0.0875575 13.1311 0.254412 12.2357C0.318015 11.8938 0.393183 11.5568 0.479914 11.2239C0.483218 11.2074 0.487348 11.1917 0.492304 11.176C0.493956 11.1677 0.496434 11.1594 0.498912 11.1512C0.535257 11.0116 0.57408 10.8736 0.61538 10.7357C0.686418 10.4953 0.763237 10.2574 0.846664 10.022V10.0212C0.982957 9.63215 1.13494 9.25053 1.30262 8.87717V8.87635C1.33979 8.79374 1.37697 8.71279 1.41496 8.63185C1.44305 8.57237 1.47196 8.51207 1.50087 8.4526C1.52978 8.3923 1.55951 8.33283 1.59008 8.27336C1.64129 8.1701 1.69415 8.0685 1.74785 7.9669C1.76271 7.93799 1.77841 7.90908 1.7941 7.88017C1.87423 7.73149 1.95683 7.58529 2.04273 7.43991C2.26493 7.05911 2.50447 6.68823 2.75889 6.32974C2.77045 6.3124 2.78284 6.29588 2.79523 6.27853C2.80267 6.26697 2.81093 6.25623 2.81919 6.24467C3.12068 5.82588 3.44365 5.42278 3.78727 5.03786C5.52025 3.08681 7.75544 1.59173 10.2905 0.754151C10.2963 0.752499 10.302 0.750021 10.3078 0.748369C10.312 0.746717 10.3169 0.745065 10.3219 0.744239C10.4169 0.71285 10.5127 0.682287 10.6085 0.653377C11.0983 0.503042 11.5989 0.377488 12.1085 0.279193C13.0444 0.0958176 14.0108 0 14.9996 0C15.5026 0 15.9991 0.0247804 16.4897 0.0735152C16.8763 0.111512 17.2587 0.164377 17.6362 0.231284C18.1459 0.321319 18.6456 0.436961 19.1363 0.57821C20.5141 0.972218 21.8117 1.55869 22.9971 2.30788C24.0312 2.96043 24.9803 3.73606 25.8228 4.61494C25.9021 4.69754 25.9806 4.78097 26.0574 4.86522C26.335 5.16754 26.5993 5.4806 26.8512 5.8044C27.1313 6.16454 27.3956 6.5379 27.6417 6.92282C27.6855 6.99138 27.7293 7.06077 27.7722 7.13098C28.1844 7.79757 28.5454 8.49968 28.8502 9.23071C28.9287 9.41986 29.0038 9.61067 29.0749 9.80313C29.1889 10.1096 29.2921 10.4202 29.3846 10.7357C29.4639 11 29.535 11.2677 29.5986 11.5386C29.6531 11.769 29.7018 12.0012 29.7448 12.2357C29.8439 12.7636 29.9149 13.3005 29.9562 13.8465C29.9851 14.2273 30 14.6114 30 14.9996Z" fill="#DE2810"/>
<path d="M14.0381 8.60778H10.2104L9.02751 4.92871L7.84466 8.60778H4.01691L7.11363 10.881L5.93078 14.5592L9.02751 12.286L12.1242 14.5592L10.9414 10.881L14.0381 8.60778Z" fill="#FFFF00"/>
<path d="M18.0302 15.61L17.0828 15.5167L16.8796 14.5767L16.4963 15.4588L15.5489 15.3647L16.2601 16.004L15.8776 16.8854L16.6995 16.398L17.4107 17.0374L17.2075 16.0974L18.0302 15.61Z" fill="#FFFF00"/>
<path d="M20.0994 11.4636L19.1768 11.6999L18.6638 10.8862L18.606 11.8461L17.6833 12.0823L18.5705 12.4391L18.5126 13.399L19.1181 12.6597L20.0052 13.0165L19.4931 12.2029L20.0994 11.4636Z" fill="#FFFF00"/>
<path d="M19.7483 6.52979L19.0223 7.14682L18.2053 6.63964L18.5738 7.52761L17.8485 8.14464L18.8017 8.07691L19.1701 8.96487L19.3907 8.03478L20.3447 7.96705L19.5278 7.45988L19.7483 6.52979Z" fill="#FFFF00"/>
<path d="M18.1087 3.52465L17.1646 3.39745L16.9944 2.45166L16.5814 3.3198L15.6373 3.19342L16.3262 3.85588L15.9123 4.72402L16.7516 4.26559L17.4396 4.92888L17.2695 3.98309L18.1087 3.52465Z" fill="#FFFF00"/>
</svg>
