<svg width="30" height="30" viewBox="0 0 30 30" fill="none" xmlns="http://www.w3.org/2000/svg">
<g clip-path="url(#clip0_346_4374)">
<path d="M22.9971 27.6921C23.0483 27.6599 23.0987 27.6277 23.1499 27.5938C24.1246 26.9627 25.0216 26.2193 25.8237 25.3842L22.9971 27.6921ZM22.9971 27.6921C22.7658 27.8383 22.5304 27.9779 22.2908 28.1117M22.9971 27.6921L20.6718 28.889M22.2908 28.1117C21.7696 28.4017 21.2294 28.6619 20.6718 28.889M22.2908 28.1117L22.1693 27.8933C22.1693 27.8933 22.1692 27.8933 22.1692 27.8933M22.2908 28.1117L22.1689 27.8935C22.169 27.8934 22.1691 27.8934 22.1692 27.8933M20.6718 28.889C20.1729 29.093 19.6608 29.2715 19.1363 29.4218L20.6718 28.889ZM22.1692 27.8933C21.6566 28.1784 21.1255 28.4342 20.5775 28.6575L20.5772 28.6576C20.0865 28.8583 19.583 29.0337 19.0674 29.1815L19.0674 29.1815C18.5857 29.3195 18.0936 29.434 17.5927 29.5225L17.5925 29.5226C16.7511 29.672 15.8844 29.75 14.9996 29.75C14.0262 29.75 13.0759 29.6558 12.1566 29.4755L12.1563 29.4754C11.6551 29.3779 11.1631 29.2553 10.6818 29.1076L10.6814 29.1075C10.2526 28.9767 9.83297 28.8274 9.42339 28.6587L9.4225 28.6583C8.87447 28.435 8.34342 28.1793 7.83098 27.8934M22.1692 27.8933C22.4049 27.7616 22.6363 27.6244 22.8635 27.4808L22.8639 27.4805C22.9141 27.4489 22.9628 27.4178 23.012 27.3853L23.014 27.384C23.9723 26.7635 24.8544 26.0325 25.6434 25.2111L25.6439 25.2105C25.6901 25.1627 25.7358 25.1139 25.7831 25.0632L25.7832 25.0631C26.3946 24.4094 26.9461 23.6996 27.431 22.9426L7.83098 27.8934M7.83098 27.8934C7.59523 27.7617 7.36376 27.6244 7.13653 27.4808L7.13605 27.4805C7.08432 27.448 7.03632 27.4177 6.98959 27.3863L6.98961 27.3863L6.98592 27.3839C6.02689 26.7635 5.14478 26.0325 4.35675 25.2112M7.83098 27.8934L27.4312 22.9423C27.4746 22.8745 27.5168 22.8075 27.557 22.7404L27.5591 22.7371C27.8146 22.3258 28.0491 21.8997 28.2618 21.4614L28.264 21.4568L28.2641 21.4568C28.2822 21.4213 28.2999 21.3845 28.3191 21.3444C28.4245 21.1239 28.5244 20.8998 28.6195 20.6729C28.6797 20.528 28.738 20.3822 28.7929 20.2361L28.7936 20.2343C28.8341 20.129 28.8727 20.0244 28.9096 19.9177L28.9103 19.9158C28.9948 19.6778 29.0735 19.4369 29.1447 19.1939L29.145 19.1931C29.222 18.9338 29.2918 18.6699 29.3553 18.4039C29.4088 18.1775 29.4567 17.9496 29.4988 17.7192L29.4991 17.7181C29.5965 17.1995 29.6655 16.6716 29.707 16.1343C29.7354 15.7598 29.75 15.3821 29.75 14.9996V14.9988C29.75 14.6169 29.7354 14.2391 29.7069 13.8646L29.7069 13.8645C29.6663 13.3277 29.5965 12.7999 29.4991 12.2811L29.4988 12.2799C29.4567 12.0496 29.4088 11.8216 29.3553 11.5953L29.3552 11.5949C29.2927 11.3286 29.2229 11.0659 29.1452 10.8067L29.1447 10.805C29.0734 10.5612 28.9956 10.3221 28.9104 10.0827L28.9099 10.0815C28.8875 10.0175 28.8642 9.954 28.8402 9.88846C28.7705 9.69965 28.6966 9.5122 28.6194 9.32607C28.5081 9.05953 28.3895 8.79645 28.2638 8.53845C28.0493 8.09963 27.8146 7.67328 27.5597 7.26178L27.559 7.26062C27.5172 7.1923 27.4743 7.12439 27.431 7.05654C27.1891 6.67828 26.9293 6.31122 26.6539 5.95703C26.406 5.63851 26.1461 5.33067 25.8733 5.03346L25.8727 5.03283C25.7976 4.95048 25.7206 4.86864 25.6425 4.78725L25.6424 4.78719C24.8545 3.96592 23.9723 3.2357 23.014 2.61521L23.012 2.61389C22.9628 2.58139 22.9141 2.55025 22.8639 2.51867L22.8635 2.51838C22.6358 2.37446 22.4047 2.23662 22.17 2.10716L22.169 2.1066C21.6564 1.82063 21.1253 1.56405 20.5775 1.34086L20.5772 1.34074C20.0865 1.14007 19.5831 0.964701 19.0677 0.817807L19.0671 0.817628C18.585 0.678834 18.0938 0.565168 17.5927 0.476646L17.5926 0.476621C17.2214 0.410829 16.8453 0.358849 16.4653 0.32149L16.4648 0.321449C16.0433 0.279293 15.6174 0.255729 15.1863 0.25H15.1861H15.1857H15.1853H15.185H15.1846H15.1842H15.1839H15.1835H15.1831H15.1828H15.1824H15.182H15.1817H15.1813H15.1809H15.1806H15.1802H15.1798H15.1795H15.1791H15.1787H15.1783H15.178H15.1776H15.1772H15.1769H15.1765H15.1761H15.1758H15.1754H15.175H15.1747H15.1743H15.1739H15.1736H15.1732H15.1728H15.1725H15.1721H15.1717H15.1713H15.171H15.1706H15.1702H15.1699H15.1695H15.1691H15.1688H15.1684H15.168H15.1677H15.1673H15.1669H15.1666H15.1662H15.1658H15.1654H15.1651H15.1647H15.1643H15.164H15.1636H15.1632H15.1629H15.1625H15.1621H15.1618H15.1614H15.161H15.1607H15.1603H15.1599H15.1595H15.1592H15.1588H15.1584H15.1581H15.1577H15.1573H15.157H15.1566H15.1562H15.1559H15.1555H15.1551H15.1547H15.1544H15.154H15.1536H15.1533H15.1529H15.1525H15.1522H15.1518H15.1514H15.1511H15.1507H15.1503H15.15H15.1496H15.1492H15.1488H15.1485H15.1481H15.1477H15.1474H15.147H15.1466H15.1463H15.1459H15.1455H15.1452H15.1448H15.1444H15.144H15.1437H15.1433H15.1429H15.1426H15.1422H15.1418H15.1415H15.1411H15.1407H15.1403H15.14H15.1396H15.1392H15.1389H15.1385H15.1381H15.1378H15.1374H15.137H15.1367H15.1363H15.1359H15.1355H15.1352H15.1348H15.1344H15.1341H15.1337H15.1333H15.133H15.1326H15.1322H15.1319H15.1315H15.1311H15.1307H15.1304H15.13H15.1296H15.1293H15.1289H15.1285H15.1282H15.1278H15.1274H15.1271H15.1267H15.1263H15.1259H15.1256H15.1252H15.1248H15.1245H15.1241H15.1237H15.1234H15.123H15.1226H15.1222H15.1219H15.1215H15.1211H15.1208H15.1204H15.12H15.1197H15.1193H15.1189H15.1186H15.1182H15.1178H15.1174H15.1171H15.1167H15.1163H15.116H15.1156H15.1152H15.1149H15.1145H15.1141H15.1138H15.1134H15.113H15.1126H15.1123H15.1119H15.1115H15.1112H15.1108H15.1104H15.1101H15.1097H15.1093H15.1089H15.1086H15.1082H15.1078H15.1075H15.1071H15.1067H15.1064H15.106H15.1056H15.1053H15.1049H15.1045H15.1041H15.1038H15.1034H15.103H15.1027H15.1023H15.1019H15.1016H15.1012H15.1008H15.1005H15.1001H15.0997H15.0993H15.099H15.0986H15.0982H15.0979H15.0975H15.0971H15.0968H15.0964H15.096H15.0957H15.0953H15.0949H15.0945H15.0942H15.0938H15.0934H15.0931H15.0927H15.0923H15.092H15.0916H15.0912H15.0909H15.0905H15.0901H15.0898H15.0894H15.089H15.0886H15.0883H15.0879H15.0875H15.0872H15.0868H15.0864H15.0861H15.0857H15.0853H15.085H15.0846H15.0842H15.0839H15.0835H15.0831H15.0827H15.0824H15.082H15.0816H15.0813H15.0809H15.0805H15.0802H15.0798H15.0794H15.0791H15.0787H15.0783H15.078H15.0776H15.0772H15.0768H15.0765H15.0761H15.0757H15.0754H15.075H15.0746H15.0743H15.0739H15.0735H15.0732H15.0728H15.0724H15.0721H15.0717H15.0713H15.071H15.0706H15.0702H15.0698H15.0695H15.0691H15.0687H15.0684H15.068H15.0676H15.0673H15.0669H15.0665H15.0662H15.0658H15.0654H15.0651H15.0647H15.0643H15.064H15.0636H15.0632H15.0629H15.0625H15.0621H15.0618H15.0614H15.061H15.0606H15.0603H15.0599H15.0595H15.0592H15.0588H15.0584H15.0581H15.0577H15.0573H15.057H15.0566H15.0562H15.0559H15.0555H15.0551H15.0548H15.0544H15.054H15.0537H15.0533H15.0529H15.0526H15.0522H15.0518H15.0515H15.0511H15.0507H15.0504H15.05H15.0496H15.0493H15.0489H15.0485H15.0482H15.0478H15.0474H15.0471H15.0467H15.0463H15.046H15.0456H15.0452H15.0449H15.0445H15.0441H15.0438H15.0434H15.043H15.0427H15.0423H15.0419H15.0416H15.0412H15.0408H15.0405H15.0401H15.0397H15.0394H15.039H15.0386H15.0383H15.0379H15.0375H15.0372H15.0368H15.0364H15.0361H15.0357H15.0353H15.035H15.0346H15.0342H15.0339H15.0335H15.0331H15.0328H15.0324H15.032H15.0317H15.0313H15.0309H15.0306H15.0302H15.0298H15.0295H15.0291H15.0287H15.0284H15.028H15.0276H15.0273H15.0269H15.0265H15.0262H15.0258H15.0254H15.0251H15.0247H15.0244H15.024H15.0236H15.0233H15.0229H15.0225H15.0222H15.0218H15.0214H15.0211H15.0207H15.0203H15.02H15.0196H15.0192H15.0189H15.0185H15.0181H15.0178H15.0174H15.0171H15.0167H15.0163H15.016H15.0156H15.0152H15.0149H15.0145H15.0141H15.0138H15.0134H15.013H15.0127H15.0123H15.0119H15.0116H15.0112H15.0109H15.0105H15.0101H15.0098H15.0094H15.009H15.0087H15.0083H15.0079H15.0076H15.0072H15.0069H15.0065H15.0061H15.0058H15.0054H15.005H15.0047H15.0043H15.0039H15.0036H15.0032H15.0029H15.0025H15.0021H15.0018H15.0014H15.001H15.0007H15.0003H14.9999H14.9996H14.9992H14.9989H14.9985H14.9981H14.9978H14.9974H14.997H14.9967H14.9963H14.996H14.9956H14.9952H14.9949H14.9945H14.9941H14.9938H14.9934H14.9931H14.9927H14.9923H14.992H14.9916H14.9912H14.9909H14.9905H14.9902H14.9898H14.9894H14.9891H14.9887H14.9883H14.988H14.9876H14.9873H14.9869H14.9865H14.9862H14.9858H14.9854H14.9851H14.9847H14.9844H14.984H14.9836H14.9833H14.9829H14.9825H14.9822H14.9818H14.9815H14.9811H14.9807H14.9804H14.98H14.9796H14.9793H14.9789H14.9786H14.9782H14.9778H14.9775H14.9771H14.9768H14.9764H14.976H14.9757H14.9753H14.9749H14.9746H14.9742H14.9739H14.9735H14.9731H14.9728H14.9724H14.972H14.9717H14.9713H14.971H14.9706H14.9702H14.9699H14.9695H14.9692H14.9688H14.9684H14.9681H14.9677H14.9673H14.967H14.9666H14.9663H14.9659H14.9655H14.9652H14.9648H14.9645H14.9641H14.9637H14.9634H14.963H14.9626H14.9623H14.9619H14.9616H14.9612H14.9608H14.9605H14.9601H14.9598H14.9594H14.959H14.9587H14.9583H14.9579H14.9576H14.9572H14.9569H14.9565H14.9561H14.9558H14.9554H14.9551H14.9547H14.9543H14.954H14.9536H14.9533H14.9529H14.9525H14.9522H14.9518H14.9514H14.9511H14.9507H14.9504H14.95H14.9496H14.9493H14.9489H14.9486H14.9482H14.9478H14.9475H14.9471H14.9468H14.9464H14.946H14.9457H14.9453H14.9449H14.9446H14.9442H14.9439H14.9435H14.9431H14.9428H14.9424H14.9421H14.9417H14.9413H14.941H14.9406H14.9403H14.9399H14.9395H14.9392H14.9388H14.9385H14.9381H14.9377H14.9374H14.937H14.9366H14.9363H14.9359H14.9356H14.9352H14.9348H14.9345H14.9341H14.9338H14.9334H14.933H14.9327H14.9323H14.932H14.9316H14.9312H14.9309H14.9305H14.9302H14.9298H14.9294H14.9291H14.9287H14.9283H14.928H14.9276H14.9273H14.9269H14.9265H14.9262H14.9258H14.9255H14.9251H14.9247H14.9244H14.924H14.9237H14.9233H14.9229H14.9226H14.9222H14.9219H14.9215H14.9211H14.9208H14.9204H14.9201H14.9197H14.9193H14.919H14.9186H14.9183H14.9179H14.9175H14.9172H14.9168H14.9164H14.9161H14.9157H14.9154H14.915H14.9146H14.9143H14.9139H14.9136H14.9132H14.9128H14.9125H14.9121H14.9118H14.9114H14.911H14.9107H14.9103H14.91H14.9096H14.9092H14.9089H14.9085H14.9082H14.9078H14.9074H14.9071H14.9067H14.9064H14.906H14.9056H14.9053H14.9049H14.9045H14.9042H14.9038H14.9035H14.9031H14.9027H14.9024H14.902H14.9017H14.9013H14.9009H14.9006H14.9002H14.8999H14.8995H14.8991H14.8988H14.8984H14.8981H14.8977H14.8973H14.897H14.8966H14.8963H14.8959H14.8955H14.8952H14.8948H14.8945H14.8941H14.8937H14.8934H14.893H14.8926H14.8923H14.8919H14.8916H14.8912H14.8908H14.8905H14.8901H14.8898H14.8894H14.889H14.8887H14.8883H14.888H14.8876H14.8872H14.8869H14.8865H14.8862H14.8858H14.8854H14.8851H14.8847H14.8844H14.884H14.8836H14.8833H14.8829H14.8826H14.8822H14.8818H14.8815H14.8811H14.8807H14.8804H14.88H14.8797H14.8793H14.8789H14.8786H14.8782H14.8779H14.8775H14.8771H14.8768H14.8764H14.8761H14.8757H14.8753H14.875H14.8746H14.8743H14.8739H14.8735H14.8732H14.8728H14.8724H14.8721H14.8717H14.8714H14.871H14.8706H14.8703H14.8699H14.8696H14.8692H14.8688H14.8685H14.8681H14.8678H14.8674H14.867H14.8667H14.8663H14.8659H14.8656H14.8652H14.8649H14.8645H14.8641H14.8638H14.8634H14.8631H14.8627H14.8623H14.862H14.8616H14.8613H14.8609H14.8605H14.8602H14.8598H14.8594H14.8591H14.8587H14.8584H14.858H14.8576H14.8573H14.8569H14.8566H14.8562H14.8558H14.8555H14.8551H14.8548H14.8544H14.854H14.8537H14.8533H14.8529H14.8526H14.8522H14.8519H14.8515H14.8511H14.8508H14.8504H14.8501H14.8497H14.8493H14.849H14.8486H14.8482H14.8479H14.8475H14.8472H14.8468H14.8464H14.8461H14.8457H14.8454H14.845H14.8446H14.8443H14.8439H14.8435H14.8432H14.8428H14.8425H14.8421H14.8417H14.8414H14.841H14.8407H14.8403H14.8399H14.8396H14.8392H14.8388H14.8385H14.8381H14.8378H14.8374H14.837H14.8367H14.8363H14.8359H14.8356H14.8352H14.8349H14.8345H14.8341H14.8338H14.8334H14.833H14.8327H14.8323H14.832H14.8316H14.8312H14.8309H14.8305H14.8302H14.8298H14.8294H14.8291H14.8287H14.8283H14.828H14.8276H14.8273H14.8269H14.8265H14.8262H14.8258H14.8254H14.8251H14.8247H14.8244H14.824H14.8236H14.8233H14.8229H14.8225H14.8222H14.8218H14.8215H14.8211H14.8207H14.8204H14.82H14.8196H14.8193H14.8189H14.8186H14.8182H14.8178H14.8175H14.8171H14.8167H14.8164H14.8162C13.9075 0.262282 13.0185 0.355718 12.1566 0.524531L12.1559 0.52467C11.6552 0.621232 11.1633 0.744601 10.6818 0.892374L10.6807 0.892722C10.5874 0.920879 10.4937 0.950761 10.4003 0.981615L10.382 0.987667L10.3791 0.988154L10.3751 0.989528C10.3727 0.990351 10.3696 0.991379 10.366 0.9925C10.046 1.0987 9.73184 1.21453 9.42269 1.34078C8.8745 1.56494 8.34339 1.82075 7.83098 2.10659L7.83076 2.10672C7.54334 2.26667 7.26155 2.43639 6.98623 2.61506L6.98612 2.61513C5.86852 3.33962 4.85557 4.21202 3.97415 5.20392L3.97377 5.20435C3.63607 5.58264 3.31855 5.97891 3.02208 6.39073L3.01499 6.40053L3.00957 6.40797L3.00646 6.41234C3.00579 6.41331 3.00553 6.41372 3.00553 6.41372L2.99891 6.42401L2.99867 6.42384C2.99237 6.43265 2.98756 6.43928 2.98356 6.4448C2.9768 6.45412 2.97233 6.46027 2.9669 6.46842L2.96285 6.47449L2.96276 6.47443C2.71257 6.82697 2.47706 7.19162 2.25866 7.5659L2.25797 7.56709C2.17371 7.70968 2.09272 7.85302 2.01418 7.99877L2.01382 7.99945C1.99789 8.02879 1.98354 8.05523 1.97017 8.08124L1.96889 8.08372L1.96888 8.08371C1.91563 8.18448 1.86388 8.28395 1.81404 8.38444L1.81298 8.38658L1.81297 8.38657C1.80896 8.39448 1.80502 8.40222 1.80114 8.40983C1.77849 8.45434 1.75813 8.49433 1.7388 8.53558L1.73515 8.54337L1.73284 8.54752C1.73276 8.54769 1.73268 8.54786 1.73259 8.54806L1.72804 8.5575C1.72684 8.55993 1.72536 8.56288 1.72362 8.56621C1.69584 8.62339 1.66809 8.68129 1.64114 8.73836C1.60379 8.81793 1.56735 8.89728 1.53098 8.97892L1.53076 8.97942C1.3692 9.33987 1.22226 9.70764 1.08991 10.0836L1.08989 10.0836L1.08739 10.0907L1.0861 10.0943L1.08547 10.096L1.08259 10.1056L1.0823 10.1055C1.00045 10.3365 0.92499 10.5702 0.85513 10.8066L0.854878 10.8074C0.814367 10.9427 0.776369 11.0777 0.740847 11.2142L0.73853 11.2231L0.738368 11.223L0.73674 11.2285L0.734787 11.2383L0.7307 11.2512C0.728211 11.2591 0.726431 11.266 0.725059 11.2729L0.723649 11.28L0.721838 11.2869C0.636603 11.614 0.562723 11.9453 0.500197 12.2815L0.500181 12.2815C0.336122 13.1619 0.25 14.0709 0.25 15.0004C0.25 15.3822 0.26462 15.7599 0.293052 16.1345C0.334507 16.6717 0.403559 17.1995 0.500943 17.7181L0.501153 17.7192C0.543315 17.9495 0.591154 18.1774 0.644674 18.4036C0.708147 18.6697 0.778012 18.9337 0.855042 19.1931L0.855056 19.1932C0.927428 19.4371 1.00533 19.6781 1.09036 19.9162L1.09095 19.9178C1.13215 20.0358 1.17493 20.152 1.22009 20.2682L1.22148 20.2717L1.22146 20.2718C1.27134 20.4061 1.32453 20.5399 1.38025 20.6723L1.3806 20.6732C1.49185 20.9404 1.61026 21.2023 1.73743 21.4599L1.7382 21.4614C1.97511 21.9499 2.23974 22.4223 2.52975 22.8797L2.53536 22.8885L2.53517 22.8886C2.54247 22.9013 2.55051 22.9138 2.5619 22.9316C2.56408 22.935 2.56639 22.9386 2.56884 22.9424C2.84172 23.3688 3.13572 23.7797 3.45001 24.1744M7.83098 27.8934C7.83102 27.8934 7.83107 27.8935 7.83111 27.8935L7.70919 28.1117L7.83098 27.8934ZM4.35675 25.2112C4.31781 25.1706 4.27988 25.131 4.24209 25.0908M4.35675 25.2112L4.17633 25.3842M4.35675 25.2112C4.35674 25.2112 4.35673 25.2112 4.35672 25.2112L4.17633 25.3842M4.24209 25.0908C3.9661 24.797 3.70207 24.4907 3.45001 24.1744M4.24209 25.0908L4.05986 25.262M4.24209 25.0908C4.24206 25.0908 4.24204 25.0908 4.24202 25.0908L4.05986 25.262M3.45001 24.1744C3.45003 24.1745 3.45005 24.1745 3.45006 24.1745L3.25449 24.3302M3.45001 24.1744L3.25449 24.3302M3.25449 24.3302C3.51056 24.6516 3.77901 24.963 4.05986 25.262M3.25449 24.3302C2.93483 23.9288 2.63581 23.5108 2.35827 23.0772C2.35626 23.074 2.35424 23.0709 2.3522 23.0677C2.34083 23.05 2.32913 23.0318 2.31862 23.0136L4.05986 25.262M4.05986 25.262C4.09859 25.3032 4.13733 25.3436 4.17606 25.384L4.17633 25.3842M4.05986 25.262L4.17633 25.3842M4.17633 25.3842C4.97756 26.2193 5.87461 26.9627 6.85013 27.5938L4.17633 25.3842ZM10.4007 0.980483C10.4005 0.980569 10.4003 0.980659 10.4 0.980749L10.4007 0.980483Z" fill="white" stroke="#DDDDDD" stroke-width="0.5"/>
<path d="M18.7053 18.7055C20.7521 16.6587 20.7521 13.3403 18.7053 11.2935C16.6585 9.24676 13.3401 9.24676 11.2933 11.2935C9.24657 13.3403 9.24657 16.6587 11.2933 18.7055C13.3401 20.7523 16.6585 20.7523 18.7053 18.7055Z" fill="#E70012"/>
</g>
<defs>
<clipPath id="clip0_346_4374">
<rect width="30" height="30" fill="white"/>
</clipPath>
</defs>
</svg>
