<svg width="30" height="30" viewBox="0 0 30 30" fill="none" xmlns="http://www.w3.org/2000/svg">
<g clip-path="url(#clip0_346_4339)">
<path d="M29.027 20.3241C29.0683 20.2167 29.1079 20.1093 29.1459 20.0003L29.027 20.3241ZM29.027 20.3241C28.9708 20.4736 28.9113 20.6223 28.8502 20.7693L29.027 20.3241ZM28.8959 19.9577V19.9564L28.9103 19.9158C28.9948 19.6778 29.0735 19.4369 29.1447 19.1939L29.145 19.1931C29.222 18.9338 29.2918 18.6699 29.3553 18.4039C29.4088 18.1775 29.4567 17.9496 29.4988 17.7192L29.4991 17.7181C29.5965 17.1995 29.6655 16.6716 29.707 16.1343C29.7354 15.7598 29.75 15.3821 29.75 14.9996C29.75 14.6178 29.7354 14.24 29.7069 13.8654L29.7069 13.8653C29.6663 13.3286 29.5965 12.8008 29.4991 12.2819L29.4988 12.2808C29.4567 12.0504 29.4088 11.8225 29.3553 11.5961L29.3552 11.5957C29.2927 11.3295 29.2229 11.0667 29.1452 10.8075L29.1447 10.8059C29.0734 10.562 28.9956 10.323 28.9105 10.0846L28.8959 10.0439V10.0426C28.8778 9.99192 28.8593 9.94125 28.8402 9.88928C28.7705 9.70048 28.6966 9.51303 28.6194 9.32689C28.5081 9.06036 28.3895 8.79728 28.2638 8.53928C28.0493 8.10046 27.8146 7.6741 27.5597 7.26261L27.559 7.26145C27.5172 7.19313 27.4743 7.12522 27.431 7.05737C27.1891 6.6791 26.9293 6.31205 26.6539 5.95785C26.406 5.63934 26.1461 5.3315 25.8733 5.03429L25.8727 5.03366C25.7976 4.9513 25.7206 4.86947 25.6425 4.78807L25.6424 4.78802C24.8545 3.96674 23.9723 3.23652 23.014 2.61603L23.012 2.61472C22.9628 2.58222 22.9141 2.55108 22.8639 2.5195L22.8635 2.5192C22.6358 2.37529 22.4047 2.23745 22.17 2.10799L22.169 2.10742C21.6564 1.82145 21.1253 1.56488 20.5775 1.34169L20.5772 1.34156C20.0865 1.1409 19.5831 0.965527 19.0677 0.818634L19.0671 0.818454C18.585 0.67966 18.0938 0.565994 17.5927 0.477472L17.5926 0.477447C17.2214 0.411655 16.8453 0.359675 16.4653 0.322316L16.4648 0.322275C16.0427 0.280065 15.6163 0.256495 15.1846 0.250804C15.1238 0.250004 15.0626 0.25 14.9996 0.25C14.9374 0.25 14.8779 0.250004 14.8179 0.250804L14.8177 0.250807C13.9085 0.262182 13.019 0.355615 12.1566 0.524531L12.1559 0.52467C11.6552 0.621232 11.1633 0.744601 10.6818 0.892374L10.6807 0.892722C10.5874 0.920879 10.4937 0.950761 10.4003 0.981615L10.382 0.987667L10.3791 0.988154L10.3751 0.989528C10.3727 0.990351 10.3696 0.991379 10.366 0.9925C10.046 1.0987 9.73184 1.21453 9.42269 1.34078C8.8745 1.56494 8.34339 1.82075 7.83098 2.10659L7.83076 2.10672C7.54334 2.26667 7.26155 2.43639 6.98623 2.61506L6.98612 2.61513C5.86852 3.33962 4.85557 4.21202 3.97415 5.20392L3.97377 5.20435C3.63607 5.58264 3.31855 5.97891 3.02208 6.39073L3.01499 6.40053L3.00957 6.40797L3.00646 6.41234C3.00579 6.41331 3.00553 6.41372 3.00553 6.41372L2.99891 6.42401L2.99867 6.42384C2.99237 6.43265 2.98756 6.43928 2.98356 6.4448C2.9768 6.45412 2.97233 6.46027 2.9669 6.46842L2.96285 6.47449L2.96276 6.47443C2.71257 6.82697 2.47706 7.19162 2.25866 7.5659L2.25797 7.56709C2.17371 7.70968 2.09272 7.85302 2.01418 7.99877L2.01382 7.99945C1.99789 8.02879 1.98354 8.05523 1.97017 8.08124L1.96889 8.08372L1.96888 8.08371C1.91563 8.18448 1.86388 8.28395 1.81404 8.38444L1.81298 8.38658L1.81297 8.38657C1.80896 8.39448 1.80502 8.40222 1.80114 8.40983C1.77849 8.45434 1.75813 8.49433 1.7388 8.53558L1.73515 8.54337L1.73284 8.54752C1.73276 8.54769 1.73268 8.54786 1.73259 8.54806L1.72804 8.5575C1.72684 8.55993 1.72536 8.56288 1.72362 8.56621C1.69584 8.62339 1.66809 8.68128 1.64114 8.73836C1.61127 8.80198 1.58191 8.86565 1.55262 8.9302V8.93063L1.53076 8.97942C1.37197 9.33371 1.22727 9.69511 1.09666 10.0636V10.065L1.0823 10.1055C1.00045 10.3365 0.92499 10.5702 0.85513 10.8066L0.854878 10.8074C0.814367 10.9427 0.776369 11.0777 0.740847 11.2142L0.73853 11.2231L0.738368 11.223L0.73674 11.2285L0.734787 11.2383L0.7307 11.2512C0.728211 11.2591 0.726431 11.266 0.725059 11.2729L0.723649 11.28L0.721838 11.2869C0.636603 11.614 0.562723 11.9453 0.500197 12.2815L0.500181 12.2815C0.33612 13.162 0.25 14.0709 0.25 14.9996V15.0004C0.25 15.3822 0.26462 15.7599 0.293052 16.1345C0.334507 16.6717 0.403559 17.1995 0.500943 17.7181L0.501153 17.7192C0.543315 17.9495 0.591154 18.1774 0.644674 18.4036C0.708147 18.6697 0.778012 18.9337 0.855042 19.1931L0.855056 19.1932C0.927431 19.4372 1.0053 19.678 1.09027 19.9151L1.10492 19.956V19.9576C1.14182 20.062 1.18002 20.1651 1.22009 20.2682L1.22148 20.2717L1.22146 20.2718C1.27134 20.4061 1.32453 20.5399 1.38025 20.6723L1.3806 20.6732C1.49185 20.9404 1.61026 21.2023 1.73743 21.4599L1.7382 21.4614C1.97511 21.9499 2.23971 22.4223 2.52964 22.8787L2.56862 22.9401V22.9421C2.56869 22.9422 2.56876 22.9423 2.56884 22.9424C2.84172 23.3688 3.13572 23.7797 3.45001 24.1744C3.70207 24.4907 3.9661 24.797 4.24209 25.0908C4.27988 25.131 4.31781 25.1706 4.35675 25.2112C5.14478 26.0325 6.02689 26.7635 6.98592 27.3839L6.98961 27.3863L6.98959 27.3863C7.03632 27.4177 7.08432 27.448 7.13605 27.4805L7.13653 27.4808C7.36376 27.6244 7.59523 27.7617 7.83098 27.8934C8.34342 28.1793 8.87447 28.435 9.4225 28.6583L9.42339 28.6587C9.83297 28.8274 10.2526 28.9767 10.6814 29.1075L10.6818 29.1076C11.1631 29.2553 11.6551 29.3779 12.1563 29.4754L12.1566 29.4755C13.0759 29.6558 14.0262 29.75 14.9996 29.75C15.8844 29.75 16.7511 29.672 17.5925 29.5226L17.5927 29.5225C18.0936 29.434 18.5857 29.3195 19.0674 29.1815L19.0674 29.1815C19.583 29.0337 20.0865 28.8583 20.5772 28.6576L20.5775 28.6575C21.1255 28.4342 21.6566 28.1784 22.1692 27.8933C22.4049 27.7616 22.6363 27.6244 22.8635 27.4808L22.8639 27.4805C22.9141 27.4489 22.9628 27.4178 23.012 27.3853L23.014 27.384C23.9723 26.7635 24.8544 26.0325 25.6434 25.2111L25.6439 25.2105C25.6901 25.1627 25.7358 25.1139 25.7831 25.0632L25.7832 25.0631C26.3946 24.4094 26.9461 23.6996 27.431 22.9426L28.8959 19.9577ZM28.8959 19.9577C28.8631 20.0503 28.8291 20.1422 28.7936 20.2343L28.7929 20.2361C28.738 20.3822 28.6797 20.528 28.6195 20.6729C28.5244 20.8998 28.4245 21.1239 28.3191 21.3444C28.2999 21.3845 28.2822 21.4213 28.2641 21.4568L28.264 21.4568L28.2618 21.4614C28.0491 21.8997 27.8146 22.3258 27.5591 22.7371L27.557 22.7404C27.5168 22.8075 27.4746 22.8745 27.4312 22.9423L28.8959 19.9577ZM10.4007 0.980483C10.4005 0.980569 10.4003 0.980659 10.4 0.980749L10.4007 0.980483Z" fill="white" stroke="#DDDDDD" stroke-width="0.5"/>
<path d="M19.3651 16.0608C19.3651 16.0765 19.3642 16.093 19.3626 16.1087C19.3626 16.1219 19.3618 16.1343 19.3609 16.1467C19.3601 16.1591 19.3593 16.1715 19.3568 16.1831C19.356 16.1979 19.3543 16.2144 19.3518 16.2293C19.3502 16.245 19.3477 16.2607 19.3461 16.2764C19.3452 16.2855 19.3436 16.2954 19.3419 16.3045C19.3403 16.316 19.3378 16.3268 19.3362 16.3383C19.3337 16.354 19.3304 16.3714 19.3279 16.3871C19.3262 16.3995 19.3229 16.411 19.3205 16.4226C19.3188 16.435 19.3155 16.4474 19.313 16.4606C19.3105 16.4746 19.3064 16.4887 19.3039 16.5027C19.2907 16.5572 19.275 16.6118 19.2577 16.6654C19.2461 16.701 19.2329 16.7373 19.2197 16.772C19.2065 16.8083 19.1916 16.8447 19.1767 16.881C20.2051 14.5988 19.2114 11.9076 16.9366 10.8462C14.6609 9.78558 11.9607 10.7537 10.8736 13.0087C10.8654 13.0269 10.8563 13.0434 10.848 13.0615C10.8398 13.0797 10.8323 13.0971 10.8233 13.1161C10.8076 13.1516 10.7927 13.1879 10.7786 13.2243C10.7654 13.259 10.753 13.2953 10.7423 13.3308C10.725 13.3845 10.7093 13.439 10.696 13.4936C10.6936 13.5076 10.6894 13.5216 10.687 13.5365C10.6845 13.5489 10.6812 13.5613 10.6795 13.5729C10.677 13.5852 10.6737 13.5976 10.6721 13.6084C10.6696 13.6241 10.6663 13.6414 10.6638 13.6571C10.6622 13.6687 10.6597 13.6794 10.658 13.691C10.6572 13.7001 10.6556 13.71 10.6539 13.7191C10.6523 13.7348 10.649 13.7504 10.6481 13.7661C10.6465 13.781 10.644 13.7975 10.6424 13.8124C10.6415 13.8248 10.6407 13.8372 10.6399 13.8487C10.639 13.8603 10.6382 13.8735 10.6374 13.8867C10.6366 13.9024 10.6357 13.919 10.6357 13.9355C10.6349 13.9512 10.6341 13.9685 10.6341 13.985V14.0503C10.6341 14.0858 10.6357 14.1222 10.6382 14.1577C10.639 14.1717 10.6399 14.1858 10.6407 14.1998V14.2056C10.6415 14.218 10.6424 14.2304 10.6448 14.2436C10.6465 14.2684 10.6498 14.2923 10.6523 14.3171C10.6539 14.3287 10.6547 14.3386 10.6572 14.3501C10.6589 14.3617 10.6597 14.3716 10.663 14.3832C10.663 14.3848 10.663 14.3873 10.6638 14.3898C10.6655 14.4046 10.6688 14.4195 10.6713 14.436C10.6721 14.441 10.6729 14.4451 10.6737 14.4501C10.6754 14.4633 10.6787 14.4765 10.6812 14.4897C10.682 14.4939 10.6828 14.4972 10.6837 14.5021C10.6861 14.5153 10.6894 14.5294 10.6919 14.5426C10.6927 14.5467 10.6936 14.5509 10.696 14.5558C10.6985 14.5682 10.7018 14.5814 10.7051 14.5946C10.706 14.6004 10.7076 14.6054 10.7093 14.6103C10.7134 14.6252 10.7167 14.6392 10.7217 14.6549C10.7266 14.6731 10.7324 14.6896 10.7365 14.707C10.7365 14.7078 10.7373 14.7086 10.7373 14.7094C10.7423 14.7251 10.7481 14.7417 10.753 14.7565C10.753 14.7582 10.7539 14.7607 10.7547 14.7623C10.7596 14.7797 10.7654 14.7954 10.772 14.8119C10.7778 14.8292 10.7844 14.8457 10.791 14.8614C10.791 14.8623 10.7919 14.8631 10.7919 14.8631C10.7976 14.8788 10.8043 14.8945 10.8109 14.9093C10.8117 14.9118 10.8125 14.9143 10.8133 14.9168C10.8199 14.9325 10.8266 14.949 10.834 14.9639C10.8406 14.9796 10.848 14.9961 10.8555 15.0109C10.8563 15.0126 10.8563 15.0134 10.8571 15.0159C10.8646 15.0316 10.872 15.0481 10.8811 15.063C10.8893 15.0803 10.8984 15.096 10.9067 15.1117C10.9149 15.1274 10.924 15.1439 10.9331 15.1588C10.9331 15.1596 10.9331 15.1596 10.9331 15.1604C10.9422 15.1761 10.9521 15.1918 10.9612 15.2075C10.9686 15.2216 10.9769 15.2348 10.9868 15.2488C10.9876 15.2513 10.9893 15.2546 10.9918 15.2571C11.0008 15.2711 11.0108 15.286 11.0198 15.3C11.0306 15.3149 11.0405 15.3298 11.0512 15.3455C11.0595 15.3579 11.0694 15.3703 11.0777 15.3818C11.0917 15.4008 11.1057 15.4182 11.1198 15.4372C11.128 15.4487 11.138 15.4595 11.147 15.471C11.1487 15.4735 11.152 15.4768 11.1537 15.4801C11.1611 15.4884 11.1677 15.4975 11.1751 15.5049C11.1809 15.5132 11.1875 15.5206 11.1941 15.5289C11.2057 15.5412 11.2164 15.5536 11.228 15.5669C11.2371 15.5759 11.2462 15.5867 11.2553 15.5958C11.2577 15.5999 11.261 15.6024 11.2643 15.6048C11.2734 15.6164 11.285 15.6263 11.2957 15.6371C11.2974 15.6395 11.3007 15.6428 11.3023 15.6445C11.3106 15.6528 11.3197 15.6618 11.3288 15.6701C11.3461 15.6874 11.3635 15.704 11.3825 15.7213C11.3899 15.7279 11.3973 15.7354 11.4048 15.742C11.4139 15.7494 11.4229 15.7568 11.432 15.7643C11.4444 15.7758 11.4568 15.7849 11.4684 15.7965C11.4775 15.8039 11.4882 15.8122 11.4989 15.8204C11.5105 15.8287 11.5212 15.8386 11.5328 15.8469C11.5419 15.8543 11.5526 15.8617 11.5617 15.8692C11.5832 15.884 11.6038 15.9006 11.627 15.9146C11.636 15.9212 11.646 15.9278 11.655 15.9344C11.6707 15.9452 11.6873 15.9551 11.703 15.9658C11.7831 16.0154 11.8682 16.0616 11.9557 16.1038C13.1022 16.6382 14.4651 16.1426 14.9996 14.9961C15.5348 13.8487 16.8978 13.3531 18.0443 13.8876C18.1004 13.9148 18.1574 13.9429 18.2111 13.9743C18.2243 13.9817 18.2384 13.99 18.2516 13.9982C18.2665 14.0065 18.2813 14.0164 18.297 14.0263C18.3127 14.0354 18.3292 14.0462 18.3449 14.0561C18.354 14.0627 18.3639 14.0693 18.373 14.0759C18.3945 14.0899 18.416 14.1056 18.4374 14.1213C18.4482 14.1288 18.4581 14.1362 18.468 14.1436C18.4796 14.1519 18.4903 14.161 18.5019 14.1701C18.5126 14.1783 18.5217 14.1858 18.5316 14.1948C18.544 14.2039 18.5564 14.2155 18.568 14.2262C18.577 14.2337 18.5861 14.2411 18.5944 14.2485C18.6027 14.2551 18.6101 14.2626 18.6183 14.2692C18.6365 14.2865 18.6547 14.303 18.672 14.3204C18.6811 14.3287 18.6902 14.3377 18.6976 14.346C18.7001 14.3485 18.7034 14.351 18.7051 14.3534C18.7158 14.3642 18.7257 14.3741 18.7365 14.3856L18.7456 14.3947C18.7546 14.4038 18.7637 14.4146 18.7728 14.4236C18.7844 14.4369 18.7951 14.4493 18.8058 14.4616C18.8125 14.4691 18.8191 14.4773 18.8257 14.4856C18.8331 14.4939 18.8397 14.5013 18.8463 14.5112C18.8488 14.5129 18.8513 14.517 18.8538 14.5195C18.8628 14.531 18.8728 14.5418 18.881 14.5533C18.8951 14.5723 18.9091 14.5897 18.9231 14.6087C18.9314 14.6211 18.9405 14.6335 18.9496 14.645C18.9603 14.6599 18.9702 14.6748 18.981 14.6904C18.9901 14.7053 19 14.7194 19.009 14.7334C19.0099 14.7359 19.0115 14.7392 19.014 14.7417C19.0231 14.7557 19.0322 14.7697 19.0396 14.783C19.0487 14.7987 19.0586 14.8144 19.0677 14.83C19.0677 14.8309 19.0677 14.8309 19.0677 14.8317C19.0768 14.8466 19.0859 14.8631 19.0941 14.8788C19.1024 14.8945 19.1115 14.911 19.1197 14.9275C19.128 14.9432 19.1354 14.9597 19.1437 14.9746C19.1437 14.9762 19.1445 14.9787 19.1453 14.9796C19.1528 14.9952 19.1602 15.0118 19.1668 15.0266C19.1743 15.0423 19.1809 15.058 19.1875 15.0737C19.1883 15.0762 19.1891 15.0787 19.1899 15.0812C19.1966 15.096 19.2023 15.1125 19.2089 15.1274C19.2089 15.1282 19.2089 15.1282 19.2098 15.1291C19.2164 15.1464 19.2222 15.1621 19.2288 15.1803C19.2346 15.196 19.2403 15.2125 19.2461 15.229C19.2469 15.2307 19.2478 15.2331 19.2478 15.2348C19.2535 15.2497 19.2585 15.2662 19.2635 15.2819C19.2635 15.2827 19.2635 15.2835 19.2643 15.2844C19.2692 15.3017 19.275 15.319 19.2792 15.3364C19.2833 15.3513 19.2874 15.3653 19.2915 15.381C19.2924 15.3868 19.294 15.3917 19.2957 15.3967C19.2998 15.4099 19.3023 15.4223 19.3048 15.4355C19.3064 15.4405 19.3072 15.4438 19.3089 15.4487C19.3114 15.4628 19.3147 15.476 19.3172 15.4892C19.318 15.4942 19.3188 15.4975 19.3196 15.5016C19.3221 15.5148 19.3254 15.528 19.3271 15.5412C19.3279 15.5462 19.3287 15.5503 19.3295 15.5553C19.332 15.571 19.3353 15.5867 19.337 15.6015C19.3378 15.604 19.3378 15.6065 19.3378 15.6082C19.3395 15.6197 19.3419 15.6305 19.3428 15.6412C19.3444 15.6528 19.3469 15.6627 19.3477 15.6742C19.3518 15.699 19.3543 15.723 19.356 15.7477C19.3568 15.761 19.3585 15.7734 19.3601 15.7866V15.7915C19.3609 15.8056 19.3618 15.8196 19.3626 15.8337C19.3642 15.8692 19.3667 15.9055 19.3667 15.941V16.0063C19.3659 16.0269 19.3659 16.0443 19.3651 16.0608Z" fill="#CD2E3A"/>
<path d="M19.3626 15.8377C19.3617 15.8237 19.3609 15.8096 19.3601 15.7956V15.7906C19.3593 15.7774 19.3576 15.765 19.356 15.7518C19.3543 15.727 19.351 15.7031 19.3477 15.6783C19.3469 15.6667 19.3452 15.6568 19.3427 15.6452C19.3419 15.6345 19.3403 15.6238 19.3378 15.6122C19.3378 15.6105 19.3378 15.6081 19.337 15.6056C19.3353 15.5907 19.332 15.5759 19.3295 15.5593C19.3287 15.5544 19.3279 15.5503 19.327 15.5453C19.3254 15.5321 19.3221 15.5189 19.3196 15.5056C19.3188 15.5015 19.318 15.4982 19.3171 15.4933C19.3147 15.48 19.3114 15.4668 19.3089 15.4528C19.308 15.4478 19.3072 15.4445 19.3047 15.4396C19.3023 15.4263 19.299 15.414 19.2957 15.4007C19.2948 15.395 19.2932 15.39 19.2915 15.385C19.2874 15.3702 19.2833 15.3561 19.2791 15.3404C19.2742 15.3231 19.2684 15.3057 19.2643 15.2884C19.2634 15.2876 19.2634 15.2868 19.2634 15.2859C19.2577 15.2702 19.2527 15.2537 19.2477 15.2388C19.2477 15.2372 19.2469 15.2347 19.2461 15.2331C19.2403 15.2157 19.2345 15.2 19.2287 15.1843C19.2221 15.1662 19.2164 15.1505 19.2098 15.1331C19.2089 15.1323 19.2089 15.1323 19.2089 15.1315C19.2023 15.1166 19.1965 15.1001 19.1899 15.0852C19.1891 15.0827 19.1883 15.0802 19.1874 15.0778C19.1808 15.0621 19.1742 15.0464 19.1668 15.0307C19.1602 15.0158 19.1528 14.9993 19.1453 14.9836C19.1445 14.9828 19.1437 14.9811 19.1437 14.9786C19.1362 14.9638 19.1288 14.9473 19.1197 14.9316C19.1115 14.9142 19.1024 14.8985 19.0941 14.8828C19.0858 14.8671 19.0768 14.8506 19.0677 14.8357C19.0677 14.8349 19.0677 14.8349 19.0677 14.8341C19.0586 14.8184 19.0487 14.8027 19.0396 14.787C19.0322 14.7738 19.0239 14.7598 19.014 14.7457C19.0123 14.7432 19.0099 14.7399 19.009 14.7375C18.9999 14.7234 18.99 14.7094 18.9809 14.6945C18.9702 14.6796 18.9603 14.6648 18.9496 14.6491C18.9405 14.6367 18.9314 14.6243 18.9231 14.6127C18.9091 14.5937 18.895 14.5764 18.881 14.5574C18.8727 14.5458 18.8628 14.5351 18.8537 14.5235C18.8513 14.521 18.8488 14.5169 18.8463 14.5153C18.8397 14.5062 18.8331 14.4979 18.8257 14.4896C18.819 14.4822 18.8124 14.474 18.8058 14.4657C18.7951 14.4533 18.7844 14.4409 18.7728 14.4277C18.7637 14.4186 18.7546 14.4079 18.7455 14.3988L18.7364 14.3897C18.7257 14.3781 18.7158 14.3682 18.7051 14.3575C18.7034 14.355 18.7001 14.3525 18.6976 14.3501C18.6902 14.3418 18.6819 14.3327 18.672 14.3244C18.6547 14.3071 18.6365 14.2906 18.6183 14.2732C18.6109 14.2666 18.6035 14.2592 18.5944 14.2526C18.5861 14.2451 18.577 14.2377 18.5679 14.2303C18.5555 14.2195 18.5432 14.2088 18.5316 14.1989C18.5209 14.1906 18.5118 14.1832 18.5019 14.1741C18.4903 14.165 18.4796 14.1559 18.468 14.1477C18.4589 14.1402 18.4482 14.1328 18.4374 14.1254C18.4168 14.1105 18.3953 14.094 18.373 14.0799C18.3639 14.0733 18.354 14.0667 18.3449 14.0601C18.3292 14.0494 18.3127 14.0395 18.297 14.0304C18.2821 14.0196 18.2673 14.0106 18.2516 14.0023C18.2384 13.9949 18.2243 13.9866 18.2111 13.9783C18.1574 13.947 18.1012 13.9189 18.0442 13.8916C16.8977 13.3572 15.5348 13.8528 14.9996 15.0001C14.4651 16.1466 13.1022 16.6422 11.9557 16.1078C11.8681 16.0665 11.7831 16.0203 11.7029 15.9699C11.6872 15.9591 11.6707 15.9492 11.655 15.9385C11.6459 15.9319 11.636 15.9253 11.6269 15.9187C11.6046 15.9046 11.584 15.8889 11.5617 15.8732C11.5526 15.8658 11.5419 15.8584 11.5328 15.8509C11.5212 15.8427 11.5105 15.8327 11.4989 15.8245C11.4882 15.8171 11.4783 15.8088 11.4683 15.8005C11.456 15.789 11.4436 15.7799 11.432 15.7683C11.4229 15.7609 11.4138 15.7535 11.4047 15.746C11.3973 15.7394 11.3899 15.732 11.3824 15.7254C11.3634 15.708 11.3461 15.6915 11.3288 15.6742C11.3197 15.6659 11.3106 15.6568 11.3023 15.6485C11.3007 15.6469 11.2974 15.6436 11.2957 15.6411C11.285 15.6304 11.2742 15.6205 11.2643 15.6089C11.2602 15.6064 11.2577 15.6031 11.2552 15.5998C11.2462 15.5907 11.2371 15.58 11.228 15.5709C11.2164 15.5577 11.2057 15.5453 11.1941 15.5329C11.1875 15.5255 11.1809 15.518 11.1751 15.5089C11.1677 15.5015 11.1611 15.4933 11.1536 15.4842C11.152 15.48 11.1487 15.4776 11.147 15.4751C11.1379 15.4635 11.128 15.4528 11.1198 15.4412C11.1057 15.4222 11.0917 15.4049 11.0776 15.3859C11.0694 15.3735 11.0595 15.3611 11.0512 15.3495C11.0405 15.3347 11.0306 15.3198 11.0198 15.3041C11.0107 15.2901 11.0008 15.2752 10.9917 15.2611C10.9901 15.2587 10.9876 15.2554 10.9868 15.2529C10.9777 15.2388 10.9686 15.2256 10.9612 15.2116C10.9521 15.1959 10.9422 15.1802 10.9331 15.1645C10.9331 15.1637 10.9331 15.1637 10.9331 15.1629C10.924 15.148 10.9149 15.1315 10.9067 15.1158C10.8984 15.1001 10.8893 15.0836 10.8811 15.067C10.8728 15.0522 10.8654 15.0356 10.8571 15.0199C10.8563 15.0183 10.8563 15.0175 10.8554 15.015C10.848 15.0001 10.8406 14.9836 10.834 14.9679C10.8265 14.953 10.8199 14.9365 10.8133 14.9208C10.8125 14.9183 10.8117 14.9159 10.8108 14.9134C10.8042 14.8985 10.7976 14.8828 10.7918 14.8671C10.7918 14.8671 10.791 14.8663 10.791 14.8655C10.7844 14.8498 10.7778 14.8324 10.772 14.8159C10.7654 14.7986 10.7596 14.7829 10.7547 14.7664C10.7538 14.7647 10.753 14.7622 10.753 14.7606C10.7472 14.7457 10.7415 14.7292 10.7373 14.7135C10.7373 14.7127 10.7365 14.7118 10.7365 14.711C10.7315 14.6937 10.7258 14.6772 10.7216 14.659C10.7167 14.6441 10.7134 14.6301 10.7092 14.6144C10.7084 14.6086 10.7068 14.6036 10.7051 14.5987C10.701 14.5855 10.6985 14.5723 10.696 14.5599C10.6944 14.5549 10.6935 14.5508 10.6919 14.5466C10.6894 14.5334 10.6861 14.5194 10.6836 14.5062C10.6828 14.5012 10.682 14.4979 10.6812 14.4938C10.6787 14.4806 10.6754 14.4673 10.6737 14.4541C10.6729 14.4492 10.6721 14.445 10.6712 14.4401C10.6688 14.4244 10.6655 14.4087 10.6638 14.3938C10.663 14.3914 10.663 14.3889 10.663 14.3872C10.6605 14.3757 10.6589 14.3657 10.6572 14.3542C10.6556 14.3426 10.6547 14.3327 10.6522 14.3211C10.6498 14.2964 10.6465 14.2724 10.6448 14.2476C10.6432 14.2344 10.6423 14.222 10.6407 14.2096V14.2038C10.6399 14.1898 10.639 14.1758 10.6382 14.1617C10.6366 14.1262 10.6341 14.0899 10.6341 14.0543V13.9891C10.6341 13.9717 10.6349 13.9552 10.6357 13.9395C10.6357 13.9222 10.6366 13.9065 10.6374 13.8908C10.6382 13.8776 10.639 13.8652 10.6399 13.8528C10.6407 13.8404 10.6415 13.828 10.6423 13.8164C10.644 13.8016 10.6465 13.7851 10.6481 13.7702C10.6489 13.7545 10.6522 13.7388 10.6539 13.7231C10.6547 13.714 10.6564 13.7041 10.658 13.695C10.6597 13.6835 10.6622 13.6727 10.6638 13.6612C10.6663 13.6455 10.6696 13.6281 10.6721 13.6124C10.6737 13.6009 10.677 13.5885 10.6795 13.5769C10.6812 13.5645 10.6845 13.5521 10.6869 13.5406C10.6894 13.5257 10.6935 13.5116 10.696 13.4976C10.7092 13.4431 10.7249 13.3886 10.7423 13.3349C10.7538 13.2994 10.7662 13.263 10.7786 13.2283C10.7927 13.192 10.8067 13.1556 10.8232 13.1201C9.79484 15.4016 10.7885 18.0927 13.0634 19.1533C15.3382 20.2139 18.0393 19.2458 19.1263 16.9908C19.1346 16.9735 19.1437 16.9561 19.1519 16.938C19.1602 16.9198 19.1676 16.9024 19.1767 16.8843C19.1916 16.8479 19.2073 16.8116 19.2197 16.7752C19.2329 16.7405 19.2461 16.7042 19.2577 16.6687C19.275 16.615 19.2907 16.5605 19.3039 16.5059C19.3064 16.4919 19.3105 16.4779 19.313 16.4638C19.3155 16.4506 19.3188 16.4382 19.3204 16.4258C19.3229 16.4134 19.3262 16.4019 19.3279 16.3903C19.3303 16.3746 19.3337 16.3573 19.3361 16.3416C19.3378 16.33 19.3403 16.3193 19.3419 16.3077C19.3427 16.2986 19.3444 16.2887 19.346 16.2796C19.3477 16.2639 19.3502 16.2482 19.3518 16.2325C19.3535 16.2177 19.356 16.2011 19.3568 16.1863C19.3584 16.1739 19.3593 16.1615 19.3609 16.1499C19.3617 16.1375 19.3626 16.1252 19.3626 16.1119C19.3642 16.0962 19.365 16.0797 19.365 16.064C19.3659 16.0467 19.3659 16.0302 19.3667 16.0128V15.9476C19.3667 15.9096 19.365 15.8732 19.3626 15.8377Z" fill="#0047A0"/>
<path d="M7.17867 7.72988L4.56805 12.2515L5.21614 12.6256L7.82676 8.10406L7.17867 7.72988Z" fill="black"/>
<path d="M8.2712 8.36122L5.66058 12.8828L6.30867 13.257L8.91929 8.73541L8.2712 8.36122Z" fill="black"/>
<path d="M9.36342 8.99111L6.75281 13.5127L7.40089 13.8869L10.0115 9.36529L9.36342 8.99111Z" fill="black"/>
<path d="M22.8198 7.72933L22.1717 8.10352L23.3368 10.1215L23.9849 9.74727L22.8198 7.72933Z" fill="black"/>
<path d="M24.2663 10.2337L23.6182 10.6079L24.7833 12.6259L25.4313 12.2517L24.2663 10.2337Z" fill="black"/>
<path d="M21.7276 8.3597L21.0795 8.73389L23.6901 13.2555L24.3382 12.8813L21.7276 8.3597Z" fill="black"/>
<path d="M20.635 8.99056L19.9869 9.36475L21.152 11.3827L21.8001 11.0085L20.635 8.99056Z" fill="black"/>
<path d="M22.0814 11.4945L21.4333 11.8687L22.5984 13.8866L23.2465 13.5124L22.0814 11.4945Z" fill="black"/>
<path d="M21.1522 18.6178L19.9871 20.6357L20.6351 21.0099L21.8002 18.992L21.1522 18.6178Z" fill="black"/>
<path d="M22.598 16.1139L21.4329 18.1318L22.0809 18.506L23.246 16.4881L22.598 16.1139Z" fill="black"/>
<path d="M22.245 19.2482L21.08 21.2661L21.728 21.6403L22.8931 19.6224L22.245 19.2482Z" fill="black"/>
<path d="M23.6909 16.7443L22.5258 18.7622L23.1739 19.1364L24.339 17.1184L23.6909 16.7443Z" fill="black"/>
<path d="M23.3368 19.879L22.1718 21.897L22.8198 22.2712L23.9849 20.2532L23.3368 19.879Z" fill="black"/>
<path d="M24.7828 17.3756L23.6177 19.3936L24.2658 19.7677L25.4309 17.7498L24.7828 17.3756Z" fill="black"/>
<path d="M8.56658 18.1312L8.35182 17.7595L7.40107 16.1133L6.75348 16.4875L7.7034 18.1337L7.91816 18.5054L9.36368 21.0091L10.0121 20.6349L8.56658 18.1312Z" fill="black"/>
<path d="M6.30812 16.744L5.66003 17.1182L6.82513 19.1361L7.47321 18.7619L6.30812 16.744Z" fill="black"/>
<path d="M7.75447 19.2479L7.10638 19.6221L8.27148 21.64L8.91956 21.2658L7.75447 19.2479Z" fill="black"/>
<path d="M6.38177 19.3925L6.14883 18.9902L5.21626 17.3745L4.56866 17.7487L5.50123 19.3644L5.73334 19.7666L7.17887 22.2703L7.82729 21.8961L6.38177 19.3925Z" fill="black"/>
</g>
<defs>
<clipPath id="clip0_346_4339">
<rect width="30" height="30" fill="white"/>
</clipPath>
</defs>
</svg>
