<svg width="30" height="30" viewBox="0 0 30 30" fill="none" xmlns="http://www.w3.org/2000/svg">
<g clip-path="url(#clip0_346_4035)">
<path d="M16.4897 0.0735152V16.1535H0.0437787C0.0148682 15.7727 0 15.3878 0 14.9996C0 13.6953 0.166855 12.4299 0.479914 11.2239L0.379966 11.1512H0.498912C0.72937 10.2773 1.03747 9.43556 1.41496 8.63185C1.44305 8.57237 1.47196 8.51207 1.50087 8.4526C1.52978 8.3923 1.55951 8.33283 1.59008 8.27336C1.64129 8.1701 1.69415 8.0685 1.74785 7.9669C1.76271 7.93799 1.77841 7.90908 1.7941 7.88017C2.08486 7.34326 2.407 6.82535 2.75889 6.32974L2.64242 6.24467H2.81919C4.64881 3.70302 7.25488 1.75693 10.2905 0.754151C10.2963 0.752499 10.302 0.750021 10.3078 0.748369C10.312 0.746717 10.3169 0.745065 10.3219 0.744239C11.7938 0.26102 13.3666 0 14.9996 0C15.5026 0 15.9991 0.0247804 16.4897 0.0735152Z" fill="#123C9E"/>
<path d="M10.6433 1.73254L10.8498 2.3694L10.3079 1.97539L9.76603 2.3694L9.97253 1.73254L9.43066 1.33853H10.1006L10.2905 0.754541C10.2963 0.752889 10.3021 0.750411 10.3079 0.748759C10.312 0.747107 10.317 0.745455 10.3219 0.744629L10.5152 1.33853H11.1851L10.6433 1.73254Z" fill="#F9F9F9"/>
<path d="M10.3079 0.748535V1.5349L10.1006 1.33831L10.2906 0.754317C10.2964 0.752665 10.3021 0.750187 10.3079 0.748535Z" fill="#F9F9F9"/>
<path d="M10.3079 1.53497L9.97253 1.73239L9.43066 1.33838L10.3079 1.53497Z" fill="#F9F9F9"/>
<path d="M10.3079 1.53497L10.5152 1.33838H11.1851L10.3079 1.53497Z" fill="#F9F9F9"/>
<path d="M10.3079 1.53497L9.43066 1.33838H10.1006L10.3079 1.53497Z" fill="#F9F9F9"/>
<path d="M10.3079 1.53516L9.76599 2.36943L10.3079 1.97542V1.53516Z" fill="#F9F9F9"/>
<path d="M11.1851 1.33838L10.3079 1.53497L10.6432 1.73239L11.1851 1.33838Z" fill="#F9F9F9"/>
<path d="M10.3079 1.53516L10.8497 2.36943L10.3079 1.97542V1.53516Z" fill="#F9F9F9"/>
<path d="M14.8336 0.700684L15.0401 1.33837H15.7108L15.1682 1.73237L15.3755 2.36923L14.8336 1.97522L14.2909 2.36923L14.4983 1.73237L13.9556 1.33837H14.6263L14.8336 0.700684Z" fill="#F9F9F9"/>
<path d="M14.8337 1.53496L14.6263 1.33837L14.8337 0.700684V1.53496Z" fill="#F9F9F9"/>
<path d="M14.8336 1.53497L14.4983 1.73239L13.9556 1.33838L14.8336 1.53497Z" fill="#F9F9F9"/>
<path d="M14.8336 1.53497L15.0401 1.33838H15.7108L14.8336 1.53497Z" fill="#F9F9F9"/>
<path d="M14.8336 1.53497L13.9556 1.33838H14.6263L14.8336 1.53497Z" fill="#F9F9F9"/>
<path d="M14.8336 1.53516L14.2909 2.36943L14.8336 1.97542V1.53516Z" fill="#F9F9F9"/>
<path d="M15.7108 1.33838L14.8336 1.53497L15.1682 1.73239L15.7108 1.33838Z" fill="#F9F9F9"/>
<path d="M14.8336 1.53516L15.3755 2.36943L14.8336 1.97542V1.53516Z" fill="#F9F9F9"/>
<path d="M5.78213 3.97168L5.98946 4.60936H6.65936L6.1175 5.00337L6.32483 5.64023L5.78213 5.24622L5.24027 5.64023L5.4476 5.00337L4.90491 4.60936H5.57563L5.78213 3.97168Z" fill="#F9F9F9"/>
<path d="M5.78219 4.80595L5.57568 4.60936L5.78219 3.97168V4.80595Z" fill="#F9F9F9"/>
<path d="M5.78213 4.80597L5.4476 5.00338L4.90491 4.60938L5.78213 4.80597Z" fill="#F9F9F9"/>
<path d="M5.7821 4.80597L5.98943 4.60938H6.65933L5.7821 4.80597Z" fill="#F9F9F9"/>
<path d="M5.78213 4.80597L4.90491 4.60938H5.57563L5.78213 4.80597Z" fill="#F9F9F9"/>
<path d="M5.7821 4.80615L5.24023 5.64043L5.7821 5.24642V4.80615Z" fill="#F9F9F9"/>
<path d="M6.65933 4.60938L5.7821 4.80597L6.11747 5.00338L6.65933 4.60938Z" fill="#F9F9F9"/>
<path d="M5.7821 4.80615L6.3248 5.64043L5.7821 5.24642V4.80615Z" fill="#F9F9F9"/>
<path d="M10.3079 3.97168L10.5152 4.60936H11.1851L10.6433 5.00337L10.8498 5.64023L10.3079 5.24622L9.76603 5.64023L9.97253 5.00337L9.43066 4.60936H10.1006L10.3079 3.97168Z" fill="#F9F9F9"/>
<path d="M10.3079 4.80595L10.1006 4.60936L10.3079 3.97168V4.80595Z" fill="#F9F9F9"/>
<path d="M10.3079 4.80597L9.97253 5.00338L9.43066 4.60938L10.3079 4.80597Z" fill="#F9F9F9"/>
<path d="M10.3079 4.80597L10.5152 4.60938H11.1851L10.3079 4.80597Z" fill="#F9F9F9"/>
<path d="M10.3079 4.80597L9.43066 4.60938H10.1006L10.3079 4.80597Z" fill="#F9F9F9"/>
<path d="M10.3079 4.80615L9.76599 5.64043L10.3079 5.24642V4.80615Z" fill="#F9F9F9"/>
<path d="M11.1851 4.60938L10.3079 4.80597L10.6432 5.00338L11.1851 4.60938Z" fill="#F9F9F9"/>
<path d="M10.3079 4.80615L10.8497 5.64043L10.3079 5.24642V4.80615Z" fill="#F9F9F9"/>
<path d="M14.8336 3.97168L15.0401 4.60936H15.7108L15.1682 5.00337L15.3755 5.64023L14.8336 5.24622L14.2909 5.64023L14.4983 5.00337L13.9556 4.60936H14.6263L14.8336 3.97168Z" fill="#F9F9F9"/>
<path d="M14.8337 4.80595L14.6263 4.60936L14.8337 3.97168V4.80595Z" fill="#F9F9F9"/>
<path d="M14.8336 4.80597L14.4983 5.00338L13.9556 4.60938L14.8336 4.80597Z" fill="#F9F9F9"/>
<path d="M14.8336 4.80597L15.0401 4.60938H15.7108L14.8336 4.80597Z" fill="#F9F9F9"/>
<path d="M14.8336 4.80597L13.9556 4.60938H14.6263L14.8336 4.80597Z" fill="#F9F9F9"/>
<path d="M14.8336 4.80615L14.2909 5.64043L14.8336 5.24642V4.80615Z" fill="#F9F9F9"/>
<path d="M15.7108 4.60938L14.8336 4.80597L15.1682 5.00338L15.7108 4.60938Z" fill="#F9F9F9"/>
<path d="M14.8336 4.80615L15.3755 5.64043L14.8336 5.24642V4.80615Z" fill="#F9F9F9"/>
<path d="M1.59181 8.27438L1.79914 8.91124L1.41504 8.63204C1.44312 8.57257 1.47203 8.51227 1.50094 8.4528C1.52986 8.3925 1.55959 8.33303 1.59015 8.27355C1.64137 8.1703 1.69423 8.0687 1.74792 7.9671C1.76279 7.93819 1.77849 7.90928 1.79418 7.88037H2.1345L1.59181 8.27438Z" fill="#F9F9F9"/>
<path d="M2.1345 7.88037L1.74792 7.9671C1.76279 7.93819 1.77849 7.90928 1.79418 7.88037H2.1345Z" fill="#F9F9F9"/>
<path d="M2.13455 7.88037L1.59186 8.27438H1.59021C1.64142 8.1703 1.69429 8.0687 1.74798 7.9671L2.13455 7.88037Z" fill="#F9F9F9"/>
<path d="M1.79914 8.91107L1.41504 8.63188C1.44312 8.57241 1.47203 8.51211 1.50094 8.45264L1.79914 8.91107Z" fill="#F9F9F9"/>
<path d="M5.78213 7.24268L5.98946 7.88036H6.65936L6.1175 8.27437L6.32483 8.91122L5.78213 8.51722L5.24027 8.91122L5.4476 8.27437L4.90491 7.88036H5.57563L5.78213 7.24268Z" fill="#F9F9F9"/>
<path d="M5.78219 8.07695L5.57568 7.88036L5.78219 7.24268V8.07695Z" fill="#F9F9F9"/>
<path d="M5.78213 8.07696L5.4476 8.27438L4.90491 7.88037L5.78213 8.07696Z" fill="#F9F9F9"/>
<path d="M5.7821 8.07696L5.98943 7.88037H6.65933L5.7821 8.07696Z" fill="#F9F9F9"/>
<path d="M5.78213 8.07696L4.90491 7.88037H5.57563L5.78213 8.07696Z" fill="#F9F9F9"/>
<path d="M5.7821 8.07715L5.24023 8.91142L5.7821 8.51741V8.07715Z" fill="#F9F9F9"/>
<path d="M6.65933 7.88037L5.7821 8.07696L6.11747 8.27438L6.65933 7.88037Z" fill="#F9F9F9"/>
<path d="M5.7821 8.07715L6.3248 8.91142L5.7821 8.51741V8.07715Z" fill="#F9F9F9"/>
<path d="M10.3079 7.24268L10.5152 7.88036H11.1851L10.6433 8.27437L10.8498 8.91122L10.3079 8.51722L9.76603 8.91122L9.97253 8.27437L9.43066 7.88036H10.1006L10.3079 7.24268Z" fill="#F9F9F9"/>
<path d="M10.3079 8.07695L10.1006 7.88036L10.3079 7.24268V8.07695Z" fill="#F9F9F9"/>
<path d="M10.3079 8.07696L9.97253 8.27438L9.43066 7.88037L10.3079 8.07696Z" fill="#F9F9F9"/>
<path d="M10.3079 8.07696L10.5152 7.88037H11.1851L10.3079 8.07696Z" fill="#F9F9F9"/>
<path d="M10.3079 8.07696L9.43066 7.88037H10.1006L10.3079 8.07696Z" fill="#F9F9F9"/>
<path d="M10.3079 8.07715L9.76599 8.91142L10.3079 8.51741V8.07715Z" fill="#F9F9F9"/>
<path d="M11.1851 7.88037L10.3079 8.07696L10.6432 8.27438L11.1851 7.88037Z" fill="#F9F9F9"/>
<path d="M10.3079 8.07715L10.8497 8.91142L10.3079 8.51741V8.07715Z" fill="#F9F9F9"/>
<path d="M14.8336 7.24268L15.0401 7.88036H15.7108L15.1682 8.27437L15.3755 8.91122L14.8336 8.51722L14.2909 8.91122L14.4983 8.27437L13.9556 7.88036H14.6263L14.8336 7.24268Z" fill="#F9F9F9"/>
<path d="M14.8337 8.07695L14.6263 7.88036L14.8337 7.24268V8.07695Z" fill="#F9F9F9"/>
<path d="M14.8336 8.07696L14.4983 8.27438L13.9556 7.88037L14.8336 8.07696Z" fill="#F9F9F9"/>
<path d="M14.8336 8.07696L15.0401 7.88037H15.7108L14.8336 8.07696Z" fill="#F9F9F9"/>
<path d="M14.8336 8.07696L13.9556 7.88037H14.6263L14.8336 8.07696Z" fill="#F9F9F9"/>
<path d="M14.8336 8.07715L14.2909 8.91142L14.8336 8.51741V8.07715Z" fill="#F9F9F9"/>
<path d="M15.7108 7.88037L14.8336 8.07696L15.1682 8.27438L15.7108 7.88037Z" fill="#F9F9F9"/>
<path d="M14.8336 8.07715L15.3755 8.91142L14.8336 8.51741V8.07715Z" fill="#F9F9F9"/>
<path d="M1.59177 11.5454L1.7991 12.1822L1.25723 11.7882L0.71454 12.1822L0.92187 11.5454L0.479953 11.224L0.380005 11.1514H1.0499L1.25723 10.5137L1.46373 11.1514H2.13446L1.59177 11.5454Z" fill="#F9F9F9"/>
<path d="M1.25726 11.3479L1.04993 11.1514L1.25726 10.5137V11.3479Z" fill="#F9F9F9"/>
<path d="M1.25723 11.348L0.92187 11.5454L0.479953 11.2241L0.380005 11.1514L0.492343 11.1761L1.25723 11.348Z" fill="#F9F9F9"/>
<path d="M1.2572 11.348L1.46371 11.1514H2.13443L1.2572 11.348Z" fill="#F9F9F9"/>
<path d="M1.25723 11.348L0.492343 11.1761L0.380005 11.1514H1.0499L1.25723 11.348Z" fill="#F9F9F9"/>
<path d="M1.25729 11.3481L0.7146 12.1824L1.25729 11.7884V11.3481Z" fill="#F9F9F9"/>
<path d="M2.13443 11.1514L1.2572 11.348L1.59174 11.5445L2.13443 11.1514Z" fill="#F9F9F9"/>
<path d="M1.2572 11.3481L1.79907 12.1824L1.2572 11.7884V11.3481Z" fill="#F9F9F9"/>
<path d="M5.78213 10.5137L5.98946 11.1514H6.65936L6.1175 11.5445L6.32483 12.1822L5.78213 11.7882L5.24027 12.1822L5.4476 11.5445L4.90491 11.1514H5.57563L5.78213 10.5137Z" fill="#F9F9F9"/>
<path d="M5.78219 11.3479L5.57568 11.1514L5.78219 10.5137V11.3479Z" fill="#F9F9F9"/>
<path d="M5.78213 11.348L5.4476 11.5445L4.90491 11.1514L5.78213 11.348Z" fill="#F9F9F9"/>
<path d="M5.7821 11.348L5.98943 11.1514H6.65933L5.7821 11.348Z" fill="#F9F9F9"/>
<path d="M5.78213 11.348L4.90491 11.1514H5.57563L5.78213 11.348Z" fill="#F9F9F9"/>
<path d="M5.7821 11.3481L5.24023 12.1824L5.7821 11.7884V11.3481Z" fill="#F9F9F9"/>
<path d="M6.65933 11.1514L5.7821 11.348L6.11747 11.5445L6.65933 11.1514Z" fill="#F9F9F9"/>
<path d="M5.7821 11.3481L6.3248 12.1824L5.7821 11.7884V11.3481Z" fill="#F9F9F9"/>
<path d="M10.3079 10.5137L10.5152 11.1514H11.1851L10.6433 11.5445L10.8498 12.1822L10.3079 11.7882L9.76603 12.1822L9.97253 11.5445L9.43066 11.1514H10.1006L10.3079 10.5137Z" fill="#F9F9F9"/>
<path d="M10.3079 11.3479L10.1006 11.1514L10.3079 10.5137V11.3479Z" fill="#F9F9F9"/>
<path d="M10.3079 11.348L9.97253 11.5445L9.43066 11.1514L10.3079 11.348Z" fill="#F9F9F9"/>
<path d="M10.3079 11.348L10.5152 11.1514H11.1851L10.3079 11.348Z" fill="#F9F9F9"/>
<path d="M10.3079 11.348L9.43066 11.1514H10.1006L10.3079 11.348Z" fill="#F9F9F9"/>
<path d="M10.3079 11.3481L9.76599 12.1824L10.3079 11.7884V11.3481Z" fill="#F9F9F9"/>
<path d="M11.1851 11.1514L10.3079 11.348L10.6432 11.5445L11.1851 11.1514Z" fill="#F9F9F9"/>
<path d="M10.3079 11.3481L10.8497 12.1824L10.3079 11.7884V11.3481Z" fill="#F9F9F9"/>
<path d="M14.8336 10.5137L15.0401 11.1514H15.7108L15.1682 11.5445L15.3755 12.1822L14.8336 11.7882L14.2909 12.1822L14.4983 11.5445L13.9556 11.1514H14.6263L14.8336 10.5137Z" fill="#F9F9F9"/>
<path d="M14.8337 11.3479L14.6263 11.1514L14.8337 10.5137V11.3479Z" fill="#F9F9F9"/>
<path d="M14.8336 11.348L14.4983 11.5445L13.9556 11.1514L14.8336 11.348Z" fill="#F9F9F9"/>
<path d="M14.8336 11.348L15.0401 11.1514H15.7108L14.8336 11.348Z" fill="#F9F9F9"/>
<path d="M14.8336 11.348L13.9556 11.1514H14.6263L14.8336 11.348Z" fill="#F9F9F9"/>
<path d="M14.8336 11.3481L14.2909 12.1824L14.8336 11.7884V11.3481Z" fill="#F9F9F9"/>
<path d="M15.7108 11.1514L14.8336 11.348L15.1682 11.5445L15.7108 11.1514Z" fill="#F9F9F9"/>
<path d="M14.8336 11.3481L15.3755 12.1824L14.8336 11.7884V11.3481Z" fill="#F9F9F9"/>
<path d="M1.25723 13.7847L1.46373 14.4224H2.13446L1.59177 14.8155L1.7991 15.4532L1.25723 15.0592L0.71454 15.4532L0.92187 14.8155L0.380005 14.4224H1.0499L1.25723 13.7847Z" fill="#F9F9F9"/>
<path d="M1.25726 14.6189L1.04993 14.4224L1.25726 13.7847V14.6189Z" fill="#F9F9F9"/>
<path d="M1.25723 14.619L0.92187 14.8155L0.380005 14.4224L1.25723 14.619Z" fill="#F9F9F9"/>
<path d="M1.2572 14.619L1.46371 14.4224H2.13443L1.2572 14.619Z" fill="#F9F9F9"/>
<path d="M1.25723 14.619L0.380005 14.4224H1.0499L1.25723 14.619Z" fill="#F9F9F9"/>
<path d="M1.25729 14.6191L0.7146 15.4534L1.25729 15.0594V14.6191Z" fill="#F9F9F9"/>
<path d="M2.13443 14.4224L1.2572 14.619L1.59174 14.8155L2.13443 14.4224Z" fill="#F9F9F9"/>
<path d="M1.2572 14.6191L1.79907 15.4534L1.2572 15.0594V14.6191Z" fill="#F9F9F9"/>
<path d="M5.78213 13.7847L5.98946 14.4224H6.65936L6.1175 14.8155L6.32483 15.4532L5.78213 15.0592L5.24027 15.4532L5.4476 14.8155L4.90491 14.4224H5.57563L5.78213 13.7847Z" fill="#F9F9F9"/>
<path d="M5.78219 14.6189L5.57568 14.4224L5.78219 13.7847V14.6189Z" fill="#F9F9F9"/>
<path d="M5.78213 14.619L5.4476 14.8155L4.90491 14.4224L5.78213 14.619Z" fill="#F9F9F9"/>
<path d="M5.7821 14.619L5.98943 14.4224H6.65933L5.7821 14.619Z" fill="#F9F9F9"/>
<path d="M5.78213 14.619L4.90491 14.4224H5.57563L5.78213 14.619Z" fill="#F9F9F9"/>
<path d="M5.7821 14.6191L5.24023 15.4534L5.7821 15.0594V14.6191Z" fill="#F9F9F9"/>
<path d="M6.65933 14.4224L5.7821 14.619L6.11747 14.8155L6.65933 14.4224Z" fill="#F9F9F9"/>
<path d="M5.7821 14.6191L6.3248 15.4534L5.7821 15.0594V14.6191Z" fill="#F9F9F9"/>
<path d="M10.3079 13.7847L10.5152 14.4224H11.1851L10.6433 14.8155L10.8498 15.4532L10.3079 15.0592L9.76603 15.4532L9.97253 14.8155L9.43066 14.4224H10.1006L10.3079 13.7847Z" fill="#F9F9F9"/>
<path d="M10.3079 14.6189L10.1006 14.4224L10.3079 13.7847V14.6189Z" fill="#F9F9F9"/>
<path d="M10.3079 14.619L9.97253 14.8155L9.43066 14.4224L10.3079 14.619Z" fill="#F9F9F9"/>
<path d="M10.3079 14.619L10.5152 14.4224H11.1851L10.3079 14.619Z" fill="#F9F9F9"/>
<path d="M10.3079 14.619L9.43066 14.4224H10.1006L10.3079 14.619Z" fill="#F9F9F9"/>
<path d="M10.3079 14.6191L9.76599 15.4534L10.3079 15.0594V14.6191Z" fill="#F9F9F9"/>
<path d="M11.1851 14.4224L10.3079 14.619L10.6432 14.8155L11.1851 14.4224Z" fill="#F9F9F9"/>
<path d="M10.3079 14.6191L10.8497 15.4534L10.3079 15.0594V14.6191Z" fill="#F9F9F9"/>
<path d="M14.8336 13.7847L15.0401 14.4224H15.7108L15.1682 14.8155L15.3755 15.4532L14.8336 15.0592L14.2909 15.4532L14.4983 14.8155L13.9556 14.4224H14.6263L14.8336 13.7847Z" fill="#F9F9F9"/>
<path d="M14.8337 14.6189L14.6263 14.4224L14.8337 13.7847V14.6189Z" fill="#F9F9F9"/>
<path d="M14.8336 14.619L14.4983 14.8155L13.9556 14.4224L14.8336 14.619Z" fill="#F9F9F9"/>
<path d="M14.8336 14.619L15.0401 14.4224H15.7108L14.8336 14.619Z" fill="#F9F9F9"/>
<path d="M14.8336 14.619L13.9556 14.4224H14.6263L14.8336 14.619Z" fill="#F9F9F9"/>
<path d="M14.8336 14.6191L14.2909 15.4534L14.8336 15.0594V14.6191Z" fill="#F9F9F9"/>
<path d="M15.7108 14.4224L14.8336 14.619L15.1682 14.8155L15.7108 14.4224Z" fill="#F9F9F9"/>
<path d="M14.8336 14.6191L15.3755 15.4534L14.8336 15.0594V14.6191Z" fill="#F9F9F9"/>
<path d="M8.04541 2.33643L8.25192 2.97411H8.92264L8.37995 3.36812L8.58728 4.00497L8.04541 3.61097L7.50272 4.00497L7.71005 3.36812L7.16736 2.97411H7.83808L8.04541 2.33643Z" fill="#F9F9F9"/>
<path d="M8.04546 3.1707L7.83813 2.97411L8.04546 2.33643V3.1707Z" fill="#F9F9F9"/>
<path d="M8.04541 3.17071L7.71005 3.36813L7.16736 2.97412L8.04541 3.17071Z" fill="#F9F9F9"/>
<path d="M8.04541 3.17071L8.25191 2.97412H8.92264L8.04541 3.17071Z" fill="#F9F9F9"/>
<path d="M8.04541 3.17071L7.16736 2.97412H7.83808L8.04541 3.17071Z" fill="#F9F9F9"/>
<path d="M8.04538 3.1709L7.50269 4.00517L8.04538 3.61116V3.1709Z" fill="#F9F9F9"/>
<path d="M8.92264 2.97412L8.04541 3.17071L8.37995 3.36813L8.92264 2.97412Z" fill="#F9F9F9"/>
<path d="M8.04541 3.1709L8.58728 4.00517L8.04541 3.61116V3.1709Z" fill="#F9F9F9"/>
<path d="M12.5703 2.33643L12.7777 2.97411H13.4476L12.9057 3.36812L13.113 4.00497L12.5703 3.61097L12.0285 4.00497L12.2358 3.36812L11.6931 2.97411H12.3638L12.5703 2.33643Z" fill="#F9F9F9"/>
<path d="M12.5704 3.1707L12.3639 2.97411L12.5704 2.33643V3.1707Z" fill="#F9F9F9"/>
<path d="M12.5703 3.17071L12.2358 3.36813L11.6931 2.97412L12.5703 3.17071Z" fill="#F9F9F9"/>
<path d="M12.5703 3.17071L12.7776 2.97412H13.4475L12.5703 3.17071Z" fill="#F9F9F9"/>
<path d="M12.5703 3.17071L11.6931 2.97412H12.3638L12.5703 3.17071Z" fill="#F9F9F9"/>
<path d="M12.5703 3.1709L12.0284 4.00517L12.5703 3.61116V3.1709Z" fill="#F9F9F9"/>
<path d="M13.4475 2.97412L12.5703 3.17071L12.9057 3.36813L13.4475 2.97412Z" fill="#F9F9F9"/>
<path d="M12.5703 3.1709L13.113 4.00517L12.5703 3.61116V3.1709Z" fill="#F9F9F9"/>
<path d="M3.85504 6.63911L4.06155 7.27597L3.51968 6.88196L2.97782 7.27597L3.18432 6.63911L2.75892 6.33018L2.64246 6.2451H3.31235L3.51968 5.60742L3.72701 6.2451H4.39691L3.85504 6.63911Z" fill="#F9F9F9"/>
<path d="M3.51971 6.4417L3.31238 6.2451L3.51971 5.60742V6.4417Z" fill="#F9F9F9"/>
<path d="M3.51968 6.44171L3.18432 6.63913L2.75892 6.3302L2.64246 6.24512L2.79527 6.27898L3.51968 6.44171Z" fill="#F9F9F9"/>
<path d="M3.51965 6.44171L3.72698 6.24512H4.39688L3.51965 6.44171Z" fill="#F9F9F9"/>
<path d="M3.51968 6.44171L2.79527 6.27898L2.64246 6.24512H3.31235L3.51968 6.44171Z" fill="#F9F9F9"/>
<path d="M3.51965 6.44189L2.97778 7.27617L3.51965 6.88216V6.44189Z" fill="#F9F9F9"/>
<path d="M4.39688 6.24512L3.51965 6.44171L3.85501 6.63913L4.39688 6.24512Z" fill="#F9F9F9"/>
<path d="M3.51965 6.44189L4.06152 7.27617L3.51965 6.88216V6.44189Z" fill="#F9F9F9"/>
<path d="M8.04541 5.60742L8.25192 6.2451H8.92264L8.37995 6.63911L8.58728 7.27597L8.04541 6.88196L7.50272 7.27597L7.71005 6.63911L7.16736 6.2451H7.83808L8.04541 5.60742Z" fill="#F9F9F9"/>
<path d="M8.04546 6.4417L7.83813 6.2451L8.04546 5.60742V6.4417Z" fill="#F9F9F9"/>
<path d="M8.04541 6.44171L7.71005 6.63913L7.16736 6.24512L8.04541 6.44171Z" fill="#F9F9F9"/>
<path d="M8.04541 6.44171L8.25191 6.24512H8.92264L8.04541 6.44171Z" fill="#F9F9F9"/>
<path d="M8.04541 6.44171L7.16736 6.24512H7.83808L8.04541 6.44171Z" fill="#F9F9F9"/>
<path d="M8.04538 6.44189L7.50269 7.27617L8.04538 6.88216V6.44189Z" fill="#F9F9F9"/>
<path d="M8.92264 6.24512L8.04541 6.44171L8.37995 6.63913L8.92264 6.24512Z" fill="#F9F9F9"/>
<path d="M8.04541 6.44189L8.58728 7.27617L8.04541 6.88216V6.44189Z" fill="#F9F9F9"/>
<path d="M12.5703 5.60742L12.7777 6.2451H13.4476L12.9057 6.63911L13.113 7.27597L12.5703 6.88196L12.0285 7.27597L12.2358 6.63911L11.6931 6.2451H12.3638L12.5703 5.60742Z" fill="#F9F9F9"/>
<path d="M12.5704 6.4417L12.3639 6.2451L12.5704 5.60742V6.4417Z" fill="#F9F9F9"/>
<path d="M12.5703 6.44171L12.2358 6.63913L11.6931 6.24512L12.5703 6.44171Z" fill="#F9F9F9"/>
<path d="M12.5703 6.44171L12.7776 6.24512H13.4475L12.5703 6.44171Z" fill="#F9F9F9"/>
<path d="M12.5703 6.44171L11.6931 6.24512H12.3638L12.5703 6.44171Z" fill="#F9F9F9"/>
<path d="M12.5703 6.44189L12.0284 7.27617L12.5703 6.88216V6.44189Z" fill="#F9F9F9"/>
<path d="M13.4475 6.24512L12.5703 6.44171L12.9057 6.63913L13.4475 6.24512Z" fill="#F9F9F9"/>
<path d="M12.5703 6.44189L13.113 7.27617L12.5703 6.88216V6.44189Z" fill="#F9F9F9"/>
<path d="M3.51968 8.87842L3.72701 9.5161H4.39691L3.85504 9.91011L4.06155 10.547L3.51968 10.153L2.97782 10.547L3.18432 9.91011L2.64246 9.5161H3.31235L3.51968 8.87842Z" fill="#F9F9F9"/>
<path d="M3.51971 9.71269L3.31238 9.5161L3.51971 8.87842V9.71269Z" fill="#F9F9F9"/>
<path d="M3.51968 9.71271L3.18432 9.91012L2.64246 9.51611L3.51968 9.71271Z" fill="#F9F9F9"/>
<path d="M3.51965 9.71271L3.72698 9.51611H4.39688L3.51965 9.71271Z" fill="#F9F9F9"/>
<path d="M3.51968 9.71271L2.64246 9.51611H3.31235L3.51968 9.71271Z" fill="#F9F9F9"/>
<path d="M3.51965 9.71289L2.97778 10.5472L3.51965 10.1532V9.71289Z" fill="#F9F9F9"/>
<path d="M4.39688 9.51611L3.51965 9.71271L3.85501 9.91012L4.39688 9.51611Z" fill="#F9F9F9"/>
<path d="M3.51965 9.71289L4.06152 10.5472L3.51965 10.1532V9.71289Z" fill="#F9F9F9"/>
<path d="M8.04541 8.87842L8.25192 9.5161H8.92264L8.37995 9.91011L8.58728 10.547L8.04541 10.153L7.50272 10.547L7.71005 9.91011L7.16736 9.5161H7.83808L8.04541 8.87842Z" fill="#F9F9F9"/>
<path d="M8.04546 9.71269L7.83813 9.5161L8.04546 8.87842V9.71269Z" fill="#F9F9F9"/>
<path d="M8.04541 9.71271L7.71005 9.91012L7.16736 9.51611L8.04541 9.71271Z" fill="#F9F9F9"/>
<path d="M8.04541 9.71271L8.25191 9.51611H8.92264L8.04541 9.71271Z" fill="#F9F9F9"/>
<path d="M8.04541 9.71271L7.16736 9.51611H7.83808L8.04541 9.71271Z" fill="#F9F9F9"/>
<path d="M8.04538 9.71289L7.50269 10.5472L8.04538 10.1532V9.71289Z" fill="#F9F9F9"/>
<path d="M8.92264 9.51611L8.04541 9.71271L8.37995 9.91012L8.92264 9.51611Z" fill="#F9F9F9"/>
<path d="M8.04541 9.71289L8.58728 10.5472L8.04541 10.1532V9.71289Z" fill="#F9F9F9"/>
<path d="M12.5703 8.87842L12.7777 9.5161H13.4476L12.9057 9.91011L13.113 10.547L12.5703 10.153L12.0285 10.547L12.2358 9.91011L11.6931 9.5161H12.3638L12.5703 8.87842Z" fill="#F9F9F9"/>
<path d="M12.5704 9.71269L12.3639 9.5161L12.5704 8.87842V9.71269Z" fill="#F9F9F9"/>
<path d="M12.5703 9.71271L12.2358 9.91012L11.6931 9.51611L12.5703 9.71271Z" fill="#F9F9F9"/>
<path d="M12.5703 9.71271L12.7776 9.51611H13.4475L12.5703 9.71271Z" fill="#F9F9F9"/>
<path d="M12.5703 9.71271L11.6931 9.51611H12.3638L12.5703 9.71271Z" fill="#F9F9F9"/>
<path d="M12.5703 9.71289L12.0284 10.5472L12.5703 10.1532V9.71289Z" fill="#F9F9F9"/>
<path d="M13.4475 9.51611L12.5703 9.71271L12.9057 9.91012L13.4475 9.51611Z" fill="#F9F9F9"/>
<path d="M12.5703 9.71289L13.113 10.5472L12.5703 10.1532V9.71289Z" fill="#F9F9F9"/>
<path d="M3.51968 12.1494L3.72701 12.7871H4.39691L3.85504 13.1803L4.06155 13.818L3.51968 13.424L2.97782 13.818L3.18432 13.1803L2.64246 12.7871H3.31235L3.51968 12.1494Z" fill="#F9F9F9"/>
<path d="M3.51971 12.9837L3.31238 12.7871L3.51971 12.1494V12.9837Z" fill="#F9F9F9"/>
<path d="M3.51968 12.9837L3.18432 13.1803L2.64246 12.7871L3.51968 12.9837Z" fill="#F9F9F9"/>
<path d="M3.51965 12.9837L3.72698 12.7871H4.39688L3.51965 12.9837Z" fill="#F9F9F9"/>
<path d="M3.51968 12.9837L2.64246 12.7871H3.31235L3.51968 12.9837Z" fill="#F9F9F9"/>
<path d="M3.51965 12.9839L2.97778 13.8182L3.51965 13.4242V12.9839Z" fill="#F9F9F9"/>
<path d="M4.39688 12.7871L3.51965 12.9837L3.85501 13.1803L4.39688 12.7871Z" fill="#F9F9F9"/>
<path d="M3.51965 12.9839L4.06152 13.8182L3.51965 13.4242V12.9839Z" fill="#F9F9F9"/>
<path d="M8.04541 12.1494L8.25192 12.7871H8.92264L8.37995 13.1803L8.58728 13.818L8.04541 13.424L7.50272 13.818L7.71005 13.1803L7.16736 12.7871H7.83808L8.04541 12.1494Z" fill="#F9F9F9"/>
<path d="M8.04546 12.9837L7.83813 12.7871L8.04546 12.1494V12.9837Z" fill="#F9F9F9"/>
<path d="M8.04541 12.9837L7.71005 13.1803L7.16736 12.7871L8.04541 12.9837Z" fill="#F9F9F9"/>
<path d="M8.04541 12.9837L8.25191 12.7871H8.92264L8.04541 12.9837Z" fill="#F9F9F9"/>
<path d="M8.04541 12.9837L7.16736 12.7871H7.83808L8.04541 12.9837Z" fill="#F9F9F9"/>
<path d="M8.04538 12.9839L7.50269 13.8182L8.04538 13.4242V12.9839Z" fill="#F9F9F9"/>
<path d="M8.92264 12.7871L8.04541 12.9837L8.37995 13.1803L8.92264 12.7871Z" fill="#F9F9F9"/>
<path d="M8.04541 12.9839L8.58728 13.8182L8.04541 13.4242V12.9839Z" fill="#F9F9F9"/>
<path d="M12.5703 12.1494L12.7777 12.7871H13.4476L12.9057 13.1803L13.113 13.818L12.5703 13.424L12.0285 13.818L12.2358 13.1803L11.6931 12.7871H12.3638L12.5703 12.1494Z" fill="#F9F9F9"/>
<path d="M12.5704 12.9837L12.3639 12.7871L12.5704 12.1494V12.9837Z" fill="#F9F9F9"/>
<path d="M12.5703 12.9837L12.2358 13.1803L11.6931 12.7871L12.5703 12.9837Z" fill="#F9F9F9"/>
<path d="M12.5703 12.9837L12.7776 12.7871H13.4475L12.5703 12.9837Z" fill="#F9F9F9"/>
<path d="M12.5703 12.9837L11.6931 12.7871H12.3638L12.5703 12.9837Z" fill="#F9F9F9"/>
<path d="M12.5703 12.9839L12.0284 13.8182L12.5703 13.4242V12.9839Z" fill="#F9F9F9"/>
<path d="M13.4475 12.7871L12.5703 12.9837L12.9057 13.1803L13.4475 12.7871Z" fill="#F9F9F9"/>
<path d="M12.5703 12.9839L13.113 13.8182L12.5703 13.4242V12.9839Z" fill="#F9F9F9"/>
<path d="M22.9971 2.3081H16.4897V0.0737305C18.8645 0.307492 21.0774 1.09551 22.9971 2.3081Z" fill="#DE0A09"/>
<path d="M25.8229 4.61516H16.4897V2.30811H22.9971C24.0313 2.96066 24.9803 3.73628 25.8229 4.61516Z" fill="white"/>
<path d="M27.6418 6.92312H16.4897V4.61523H25.8229C26.501 5.32148 27.1106 6.09463 27.6418 6.92312Z" fill="#DE0A09"/>
<path d="M28.8502 9.23073H16.4897V6.92285H27.6418C28.1085 7.6514 28.5132 8.42289 28.8502 9.23073Z" fill="white"/>
<path d="M29.5986 11.5388H16.4897V9.23096H28.8502C29.1591 9.97189 29.4111 10.7426 29.5986 11.5388Z" fill="#DE0A09"/>
<path d="M29.9563 13.8465H16.4897V11.5386H29.5986C29.7754 12.2878 29.8968 13.0584 29.9563 13.8465Z" fill="white"/>
<path d="M30 14.9998C30 15.388 29.9852 15.7729 29.9563 16.1537H16.4897V13.8467H29.9563C29.9852 14.2275 30 14.6116 30 14.9998Z" fill="#DE0A09"/>
<path d="M29.9563 16.1538C29.896 16.9418 29.7754 17.7125 29.5986 18.4617H0.401487C0.22472 17.7125 0.104122 16.9418 0.0438232 16.1538H29.9563Z" fill="white"/>
<path d="M29.5986 18.4619C29.4103 19.2574 29.1592 20.0289 28.8502 20.7698H1.14986C0.840929 20.0289 0.58982 19.2574 0.401489 18.4619H29.5986Z" fill="#DE0A09"/>
<path d="M28.8503 20.7695C28.5133 21.5774 28.1085 22.3489 27.6418 23.0774H2.35836C1.89166 22.3489 1.48692 21.5774 1.1499 20.7695H28.8503Z" fill="white"/>
<path d="M27.6417 23.0776C27.1114 23.9061 26.5018 24.6785 25.8237 25.3847H4.17633C3.49818 24.6785 2.88858 23.9061 2.35828 23.0776H27.6417Z" fill="#DE0A09"/>
<path d="M25.8237 25.3843C24.9804 26.2632 24.0313 27.0396 22.9971 27.6922H7.00301C5.96802 27.0396 5.01893 26.2632 4.17639 25.3843H25.8237Z" fill="white"/>
<path d="M22.997 27.6924C20.6817 29.1544 17.9394 30.0003 14.9996 30.0003C12.0598 30.0003 9.31742 29.1544 7.00293 27.6924H22.997Z" fill="#DE0A09"/>
</g>
<defs>
<clipPath id="clip0_346_4035">
<rect width="30" height="30" fill="white"/>
</clipPath>
</defs>
</svg>
