<svg width="20" height="20" viewBox="0 0 20 20" fill="none" xmlns="http://www.w3.org/2000/svg">
<path d="M17.0833 5H2.91663M15.6941 7.08333L15.3108 12.8333C15.1633 15.045 15.09 16.1508 14.3691 16.825C13.6483 17.4992 12.5391 17.5 10.3225 17.5H9.67746C7.46079 17.5 6.35163 17.5 5.63079 16.825C4.90996 16.1508 4.83579 15.045 4.68913 12.8333L4.30579 7.08333M7.91663 9.16667L8.33329 13.3333M12.0833 9.16667L11.6666 13.3333" stroke="#333333" stroke-linecap="round"/>
<path d="M5.41663 5H5.50829C5.84366 4.99143 6.16864 4.88185 6.44073 4.68559C6.71281 4.48934 6.91934 4.21553 7.03329 3.9L7.06163 3.81417L7.14246 3.57167C7.21163 3.36417 7.24663 3.26083 7.29246 3.1725C7.38263 2.99949 7.51205 2.84999 7.67036 2.73597C7.82866 2.62194 8.01146 2.54655 8.20413 2.51583C8.30163 2.5 8.41079 2.5 8.62913 2.5H11.3708C11.5891 2.5 11.6983 2.5 11.7958 2.51583C11.9885 2.54655 12.1713 2.62194 12.3296 2.73597C12.4879 2.84999 12.6173 2.99949 12.7075 3.1725C12.7533 3.26083 12.7883 3.36417 12.8575 3.57167L12.9383 3.81417C13.0439 4.16523 13.2623 4.47167 13.5597 4.68605C13.8571 4.90043 14.2169 5.01077 14.5833 5" stroke="#333333"/>
</svg>
