<svg width="8" height="6" viewBox="0 0 8 6" fill="none" xmlns="http://www.w3.org/2000/svg">
<path d="M7.01767 0.992575L7.01122 0.998589L7.00498 1.00483L2.83853 5.17127C2.81509 5.19468 2.78332 5.20783 2.7502 5.20783C2.71707 5.20783 2.6853 5.19468 2.66186 5.17127L1.00404 3.51345C0.984276 3.49029 0.973601 3.46066 0.974141 3.4301C0.974712 3.39772 0.987831 3.36682 1.01073 3.34392L0.657179 2.99036L1.01073 3.34392C1.03364 3.32101 1.06453 3.30789 1.09692 3.30732C1.12748 3.30678 1.15711 3.31746 1.18027 3.33722L2.39664 4.5536L2.7502 4.90715L3.10375 4.5536L6.82875 0.828601L6.83499 0.822362L6.841 0.815907C6.85245 0.803626 6.86625 0.793776 6.88158 0.786945L6.67808 0.330229L6.88158 0.786944C6.89691 0.780112 6.91347 0.776439 6.93025 0.776142C6.94703 0.775846 6.9637 0.778934 6.97927 0.785221L7.16653 0.321611L6.97927 0.785221C6.99483 0.791507 7.00897 0.800864 7.02084 0.812734C7.03271 0.824607 7.04207 0.838746 7.04836 0.854308L7.51077 0.667531L7.04836 0.85431C7.05464 0.86987 7.05773 0.88654 7.05743 0.903329C7.05714 0.920116 7.05346 0.936668 7.04663 0.951997C7.0398 0.967333 7.02995 0.981132 7.01767 0.992575Z" fill="white" stroke="#B2BCB9"/>
</svg>
