<svg width="122" height="30" viewBox="0 0 122 30" fill="none" xmlns="http://www.w3.org/2000/svg">
<path d="M9.885 1.55C11.495 1.55 13 1.725 14.4 2.075C15.8 2.40166 17.0133 2.96167 18.04 3.755C19.09 4.54833 19.9183 5.61 20.525 6.94C21.1317 8.24667 21.435 9.88 21.435 11.84V18.735C21.435 20.7183 21.1317 22.375 20.525 23.705C19.9183 25.0117 19.09 26.0617 18.04 26.855C17.0133 27.6483 15.8 28.2083 14.4 28.535C13 28.8617 11.495 29.025 9.885 29.025H1.485C0.995 29.025 0.75 28.7917 0.75 28.325V9.67C0.75 9.20333 0.983333 8.97 1.45 8.97H7.155C7.66833 8.97 7.925 9.20333 7.925 9.67V22.655H9.85C11.2267 22.655 12.3117 22.3283 13.105 21.675C13.9217 20.9983 14.33 19.9367 14.33 18.49V12.085C14.33 10.6383 13.9217 9.58833 13.105 8.935C12.3117 8.25833 11.2267 7.92 9.85 7.92H0.75C0.26 7.92 0.015 7.68667 0.015 7.22V2.25C0.015 1.78333 0.26 1.55 0.75 1.55H9.885ZM43.3332 28.325C43.3332 28.7917 43.0999 29.025 42.6332 29.025H37.0682C36.5782 29.025 36.3332 28.7917 36.3332 28.325V16.11C36.0299 15.9 35.7149 15.7483 35.3882 15.655C35.0616 15.5617 34.7466 15.515 34.4432 15.515C33.3232 15.515 32.4482 15.8183 31.8182 16.425C31.2116 17.0317 30.9082 18 30.9082 19.33C30.9082 20.7067 31.2116 21.71 31.8182 22.34C32.4482 22.9467 33.3232 23.25 34.4432 23.25H34.5832C35.0499 23.25 35.2832 23.495 35.2832 23.985V28.325C35.2832 28.7917 35.0499 29.025 34.5832 29.025H34.4432C32.8566 29.025 31.4216 28.8383 30.1382 28.465C28.8549 28.0917 27.7582 27.52 26.8482 26.75C25.9616 25.98 25.2732 25.0233 24.7832 23.88C24.2932 22.7133 24.0482 21.3483 24.0482 19.785V19.085C24.0482 17.5683 24.2699 16.2267 24.7132 15.06C25.1566 13.8933 25.7632 12.925 26.5332 12.155C27.3032 11.3617 28.2132 10.7667 29.2632 10.37C30.3366 9.97333 31.4916 9.775 32.7282 9.775C33.3349 9.775 33.9532 9.86833 34.5832 10.055C35.2366 10.2183 35.8199 10.4867 36.3332 10.86V10.65C36.3332 10.1833 36.5782 9.95 37.0682 9.95H42.6332C43.0999 9.95 43.3332 10.1833 43.3332 10.65V28.325ZM53.4783 28.29C53.4783 28.78 53.245 29.025 52.7783 29.025H47.1783C46.7117 29.025 46.4783 28.78 46.4783 28.29V1.515C46.4783 1.07167 46.7117 0.849999 47.1783 0.849999H52.7433C53.2333 0.849999 53.4783 1.07167 53.4783 1.515V28.29ZM63.9797 28.29C63.9797 28.78 63.7347 29.025 63.2447 29.025H57.5047C57.038 29.025 56.8047 28.78 56.8047 28.29V2.215C56.8047 1.77167 57.038 1.55 57.5047 1.55H63.2447C63.7347 1.55 63.9797 1.77167 63.9797 2.215V11.42L69.6847 2.11C69.8014 1.92333 69.918 1.78333 70.0347 1.69C70.1514 1.59667 70.303 1.55 70.4897 1.55H77.5247C77.7814 1.55 77.9564 1.63167 78.0497 1.795C78.1664 1.935 78.143 2.13333 77.9797 2.39L63.9797 23.11V28.29ZM71.6797 29.025C71.2364 29.025 70.968 28.8383 70.8747 28.465L67.0947 21.29C67.0247 21.15 66.978 20.9983 66.9547 20.835C66.9547 20.6483 67.013 20.4733 67.1297 20.31L70.5947 15.2C70.9214 14.6867 71.2364 14.6867 71.5397 15.2L79.1697 28.22C79.403 28.7567 79.228 29.025 78.6447 29.025H71.6797ZM98.3967 28.325C98.3967 28.7917 98.1634 29.025 97.6967 29.025H92.1317C91.6417 29.025 91.3967 28.7917 91.3967 28.325V16.11C91.0934 15.9 90.7784 15.7483 90.4517 15.655C90.1251 15.5617 89.8101 15.515 89.5067 15.515C88.3867 15.515 87.5117 15.8183 86.8817 16.425C86.2751 17.0317 85.9717 18 85.9717 19.33C85.9717 20.7067 86.2751 21.71 86.8817 22.34C87.5117 22.9467 88.3867 23.25 89.5067 23.25H89.6467C90.1134 23.25 90.3467 23.495 90.3467 23.985V28.325C90.3467 28.7917 90.1134 29.025 89.6467 29.025H89.5067C87.9201 29.025 86.4851 28.8383 85.2017 28.465C83.9184 28.0917 82.8217 27.52 81.9117 26.75C81.0251 25.98 80.3367 25.0233 79.8467 23.88C79.3567 22.7133 79.1117 21.3483 79.1117 19.785V19.085C79.1117 17.5683 79.3334 16.2267 79.7767 15.06C80.2201 13.8933 80.8267 12.925 81.5967 12.155C82.3667 11.3617 83.2767 10.7667 84.3267 10.37C85.4001 9.97333 86.5551 9.775 87.7917 9.775C88.3984 9.775 89.0167 9.86833 89.6467 10.055C90.3001 10.2183 90.8834 10.4867 91.3967 10.86V10.65C91.3967 10.1833 91.6417 9.95 92.1317 9.95H97.6967C98.1634 9.95 98.3967 10.1833 98.3967 10.65V28.325ZM108.542 28.29C108.542 28.78 108.308 29.025 107.842 29.025H102.242C101.775 29.025 101.542 28.78 101.542 28.29V1.515C101.542 1.07167 101.775 0.849999 102.242 0.849999H107.807C108.297 0.849999 108.542 1.07167 108.542 1.515V15.935L111.972 10.51C112.088 10.3233 112.205 10.1833 112.322 10.09C112.438 9.99667 112.59 9.95 112.777 9.95H119.742C119.998 9.95 120.173 10.0317 120.267 10.195C120.383 10.335 120.36 10.5217 120.197 10.755L108.542 25.7V28.29ZM114.387 29.025C114.037 29.025 113.745 28.8383 113.512 28.465L111.447 24.615C111.377 24.475 111.33 24.3233 111.307 24.16C111.307 23.9733 111.365 23.7983 111.482 23.635L114.807 19.365C115.133 18.8517 115.448 18.8517 115.752 19.365L121.667 28.22C121.83 28.43 121.853 28.6167 121.737 28.78C121.643 28.9433 121.468 29.025 121.212 29.025H114.387Z" fill="#333333"/>
</svg>
