<svg width="40" height="40" viewBox="0 0 40 40" fill="none" xmlns="http://www.w3.org/2000/svg">
<rect x="0.5" y="0.5" width="39" height="39" rx="19.5" stroke="#333333"/>
<path d="M20.375 16.25C19.5592 16.25 18.7616 16.4919 18.0833 16.9452C17.4049 17.3984 16.8762 18.0427 16.564 18.7964C16.2518 19.5502 16.1701 20.3796 16.3293 21.1797C16.4884 21.9799 16.8813 22.7149 17.4582 23.2918C18.0351 23.8687 18.7701 24.2616 19.5703 24.4207C20.3704 24.5799 21.1998 24.4982 21.9536 24.186C22.7073 23.8738 23.3516 23.3451 23.8048 22.6667C24.2581 21.9884 24.5 21.1908 24.5 20.375C24.4988 19.2814 24.0638 18.2329 23.2904 17.4596C22.5171 16.6862 21.4686 16.2512 20.375 16.25ZM20.375 23.75C19.7075 23.75 19.055 23.5521 18.5 23.1812C17.9449 22.8104 17.5124 22.2833 17.2569 21.6666C17.0015 21.0499 16.9346 20.3713 17.0648 19.7166C17.1951 19.0619 17.5165 18.4605 17.9885 17.9885C18.4605 17.5165 19.0619 17.1951 19.7166 17.0648C20.3713 16.9346 21.0499 17.0015 21.6666 17.2569C22.2833 17.5124 22.8104 17.9449 23.1812 18.5C23.5521 19.055 23.75 19.7075 23.75 20.375C23.75 21.2701 23.3944 22.1285 22.7615 22.7615C22.1285 23.3944 21.2701 23.75 20.375 23.75ZM24.875 11H15.875C14.5825 11.0015 13.3434 11.5156 12.4295 12.4295C11.5156 13.3434 11.0015 14.5825 11 15.875V24.875C11.0015 26.1675 11.5156 27.4066 12.4295 28.3205C13.3434 29.2344 14.5825 29.7485 15.875 29.75H24.875C26.1675 29.7485 27.4066 29.2344 28.3205 28.3205C29.2344 27.4066 29.7485 26.1675 29.75 24.875V15.875C29.7485 14.5825 29.2344 13.3434 28.3205 12.4295C27.4066 11.5156 26.1675 11.0015 24.875 11ZM29 24.875C28.9988 25.9686 28.5638 27.0171 27.7904 27.7904C27.0171 28.5638 25.9686 28.9988 24.875 29H15.875C14.7814 28.9988 13.7329 28.5638 12.9596 27.7904C12.1862 27.0171 11.7512 25.9686 11.75 24.875V15.875C11.7512 14.7814 12.1862 13.7329 12.9596 12.9596C13.7329 12.1862 14.7814 11.7512 15.875 11.75H24.875C25.9686 11.7512 27.0171 12.1862 27.7904 12.9596C28.5638 13.7329 28.9988 14.7814 29 15.875V24.875ZM26 15.5C26 15.6483 25.956 15.7933 25.8736 15.9167C25.7912 16.04 25.6741 16.1361 25.537 16.1929C25.4 16.2497 25.2492 16.2645 25.1037 16.2356C24.9582 16.2067 24.8246 16.1352 24.7197 16.0303C24.6148 15.9254 24.5434 15.7918 24.5144 15.6463C24.4855 15.5008 24.5003 15.35 24.5571 15.213C24.6139 15.0759 24.71 14.9588 24.8333 14.8764C24.9567 14.794 25.1017 14.75 25.25 14.75C25.4489 14.75 25.6397 14.829 25.7803 14.9697C25.921 15.1103 26 15.3011 26 15.5Z" fill="#333333"/>
</svg>
