<svg width="16" height="16" viewBox="0 0 16 16" fill="none" xmlns="http://www.w3.org/2000/svg">
<mask id="mask0_543_3679" style="mask-type:alpha" maskUnits="userSpaceOnUse" x="0" y="0" width="16" height="16">
<rect width="16" height="16" fill="#D9D9D9"/>
</mask>
<g mask="url(#mask0_543_3679)">
<g filter="url(#filter0_i_543_3679)">
<path d="M8.06525 0.434941C8.93925 0.434941 9.75625 0.529941 10.5163 0.71994C11.2763 0.897274 11.9349 1.20127 12.4923 1.63194C13.0623 2.06261 13.5119 2.63894 13.8413 3.36094C14.1706 4.07027 14.3353 4.95694 14.3353 6.02094V9.76394C14.3353 10.8406 14.1706 11.7399 13.8413 12.4619C13.5119 13.1713 13.0623 13.7413 12.4923 14.1719C11.9349 14.6026 11.2763 14.9066 10.5163 15.0839C9.75625 15.2613 8.93925 15.3499 8.06525 15.3499H3.50525C3.23925 15.3499 3.10625 15.2233 3.10625 14.9699V4.84294C3.10625 4.58961 3.23292 4.46294 3.48625 4.46294H6.58325C6.86192 4.46294 7.00125 4.58961 7.00125 4.84294V11.8919H8.04625C8.79358 11.8919 9.38258 11.7146 9.81325 11.3599C10.2566 10.9926 10.4783 10.4163 10.4783 9.63094V6.15394C10.4783 5.36861 10.2566 4.79861 9.81325 4.44394C9.38258 4.07661 8.79358 3.89294 8.04625 3.89294H3.10625C2.84025 3.89294 2.70725 3.76627 2.70725 3.51294V0.81494C2.70725 0.561607 2.84025 0.434941 3.10625 0.434941H8.06525Z" fill="white"/>
</g>
</g>
<defs>
<filter id="filter0_i_543_3679" x="2.70703" y="0.435059" width="11.6289" height="18.915" filterUnits="userSpaceOnUse" color-interpolation-filters="sRGB">
<feFlood flood-opacity="0" result="BackgroundImageFix"/>
<feBlend mode="normal" in="SourceGraphic" in2="BackgroundImageFix" result="shape"/>
<feColorMatrix in="SourceAlpha" type="matrix" values="0 0 0 0 0 0 0 0 0 0 0 0 0 0 0 0 0 0 127 0" result="hardAlpha"/>
<feOffset dy="4"/>
<feGaussianBlur stdDeviation="2"/>
<feComposite in2="hardAlpha" operator="arithmetic" k2="-1" k3="1"/>
<feColorMatrix type="matrix" values="0 0 0 0 0.894118 0 0 0 0 0.945098 0 0 0 0 1 0 0 0 1 0"/>
<feBlend mode="normal" in2="shape" result="effect1_innerShadow_543_3679"/>
</filter>
</defs>
</svg>
