<svg width="17" height="18" viewBox="0 0 17 18" fill="none" xmlns="http://www.w3.org/2000/svg">
<path d="M15.9381 9.16507C15.9381 8.55355 15.8874 8.1073 15.7778 7.64453H8.65234V10.4046H12.8348C12.7506 11.0906 12.2952 12.1236 11.2833 12.8177L11.2691 12.9101L13.522 14.6205L13.6781 14.6358C15.1116 13.3383 15.9381 11.4294 15.9381 9.16507" fill="#4285F4"/>
<path d="M8.65182 16.4373C10.7009 16.4373 12.4211 15.7761 13.6776 14.6357L11.2827 12.8176C10.6419 13.2556 9.78175 13.5614 8.65182 13.5614C6.6449 13.5614 4.94155 12.264 4.33435 10.4707L4.24535 10.4781L1.90271 12.2549L1.87207 12.3383C3.12007 14.7679 5.68356 16.4373 8.65182 16.4373Z" fill="#34A853"/>
<path d="M4.33527 10.4708C4.17505 10.008 4.08233 9.51216 4.08233 8.99982C4.08233 8.48743 4.17505 7.99161 4.32684 7.52884L4.32259 7.43028L1.95059 5.625L1.87298 5.66118C1.35862 6.66938 1.06348 7.80156 1.06348 8.99982C1.06348 10.1981 1.35862 11.3302 1.87298 12.3384L4.33527 10.4708" fill="#FBBC05"/>
<path d="M8.65186 4.43831C10.0769 4.43831 11.0382 5.04157 11.5864 5.54571L13.7282 3.49625C12.4128 2.29799 10.7009 1.5625 8.65186 1.5625C5.68358 1.5625 3.12008 3.23179 1.87207 5.66136L4.32593 7.52902C4.94157 5.73576 6.64493 4.43831 8.65186 4.43831" fill="#EB4335"/>
</svg>
