<svg width="18" height="18" viewBox="0 0 18 18" fill="none" xmlns="http://www.w3.org/2000/svg">
<path d="M8.99924 2C13.4183 2 17 4.65797 17 7.93764C17 11.2166 13.4183 13.8746 9 13.8746C8.56009 13.8738 8.12064 13.8472 7.68419 13.7948L4.32571 15.8862C3.944 16.0784 3.80914 16.0574 3.96609 15.5866L4.64571 12.9184C2.45143 11.8593 1 10.024 1 7.93764C1 4.6587 4.58019 2 8.99924 2ZM13.5013 7.84696L14.6213 6.81395C14.686 6.75005 14.722 6.66476 14.7219 6.57604C14.7218 6.48733 14.6855 6.40212 14.6207 6.33837C14.5559 6.27461 14.4677 6.23729 14.3746 6.23425C14.2815 6.23122 14.1907 6.26272 14.1215 6.32211L12.6526 7.67576V6.55715C12.6526 6.46634 12.6147 6.37925 12.5472 6.31503C12.4798 6.25082 12.3883 6.21475 12.293 6.21475C12.1976 6.21475 12.1061 6.25082 12.0387 6.31503C11.9712 6.37925 11.9333 6.46634 11.9333 6.55715V8.41207C11.9207 8.46508 11.9207 8.52012 11.9333 8.57312V9.61701C11.9333 9.70782 11.9712 9.79491 12.0387 9.85913C12.1061 9.92334 12.1976 9.95941 12.293 9.95941C12.3883 9.95941 12.4798 9.92334 12.5472 9.85913C12.6147 9.79491 12.6526 9.70782 12.6526 9.61701V8.62825L12.9779 8.32865L14.0659 9.80345C14.0931 9.84027 14.1276 9.87163 14.1675 9.89575C14.2074 9.91987 14.2519 9.93627 14.2984 9.94402C14.345 9.95177 14.3927 9.95071 14.4388 9.9409C14.4849 9.9311 14.5286 9.91274 14.5672 9.88687C14.6059 9.86101 14.6388 9.82814 14.6642 9.79016C14.6895 9.75217 14.7067 9.70981 14.7149 9.66548C14.723 9.62116 14.7219 9.57574 14.7116 9.53183C14.7013 9.48791 14.682 9.44636 14.6549 9.40954L13.5013 7.84696ZM11.2476 9.24269H10.1352V6.56803C10.131 6.48004 10.0913 6.397 10.0244 6.33616C9.95746 6.27533 9.86851 6.24138 9.776 6.24138C9.68349 6.24138 9.59453 6.27533 9.52763 6.33616C9.46072 6.397 9.42102 6.48004 9.41676 6.56803V9.58509C9.41676 9.77371 9.57676 9.9275 9.77562 9.9275H11.2476C11.343 9.9275 11.4345 9.89142 11.5019 9.82721C11.5693 9.763 11.6072 9.6759 11.6072 9.58509C11.6072 9.49428 11.5693 9.40719 11.5019 9.34298C11.4345 9.27877 11.343 9.24269 11.2476 9.24269ZM6.78514 8.45125L7.31543 7.21221L7.80152 8.45052L6.78514 8.45125ZM8.70743 8.80453L8.70895 8.79292C8.7087 8.70668 8.67412 8.62373 8.61219 8.56079L7.81524 6.52958C7.78183 6.43279 7.71819 6.348 7.63283 6.28656C7.54747 6.22512 7.44444 6.18994 7.33752 6.18573C7.22992 6.18568 7.12481 6.21663 7.03602 6.2745C6.94722 6.33237 6.87889 6.41447 6.84 6.51L5.57371 9.46612C5.53764 9.5502 5.53813 9.64448 5.57507 9.72821C5.612 9.81195 5.68236 9.87828 5.77067 9.91262C5.85897 9.94697 5.95799 9.9465 6.04593 9.91134C6.13388 9.87617 6.20355 9.80918 6.23962 9.7251L6.49257 9.13533H8.06971L8.29676 9.71567C8.31225 9.75905 8.33672 9.79903 8.36873 9.83324C8.40075 9.86745 8.43964 9.89519 8.48312 9.91483C8.5266 9.93446 8.57377 9.94559 8.62185 9.94755C8.66993 9.94952 8.71793 9.94227 8.76301 9.92625C8.80809 9.91022 8.84934 9.88575 8.88431 9.85427C8.91928 9.82279 8.94725 9.78495 8.96658 9.74299C8.98591 9.70103 8.99619 9.65581 8.99683 9.60999C8.99747 9.56418 8.98844 9.51871 8.97028 9.47628L8.70743 8.80453ZM6.17562 6.57166C6.17582 6.5267 6.16668 6.48215 6.14873 6.44057C6.13077 6.39899 6.10436 6.3612 6.07101 6.32937C6.03765 6.29755 5.99802 6.27232 5.95439 6.25514C5.91075 6.23796 5.86398 6.22916 5.81676 6.22926H3.34438C3.249 6.22926 3.15753 6.26533 3.09009 6.32954C3.02265 6.39376 2.98476 6.48085 2.98476 6.57166C2.98476 6.66247 3.02265 6.74956 3.09009 6.81377C3.15753 6.87799 3.249 6.91406 3.34438 6.91406H4.22819V9.62427C4.22819 9.71508 4.26608 9.80217 4.33352 9.86638C4.40096 9.9306 4.49243 9.96667 4.58781 9.96667C4.68319 9.96667 4.77466 9.9306 4.8421 9.86638C4.90954 9.80217 4.94743 9.71508 4.94743 9.62427V6.91406H5.816C5.86328 6.91425 5.91014 6.90553 5.95386 6.88839C5.99758 6.87125 6.0373 6.84604 6.07074 6.8142C6.10417 6.78237 6.13065 6.74455 6.14865 6.70292C6.16666 6.66129 6.17582 6.61668 6.17562 6.57166Z" fill="black"/>
</svg>
