<svg width="24" height="25" viewBox="0 0 24 25" fill="none" xmlns="http://www.w3.org/2000/svg">
<path d="M11 20.154L9.844 19.112C8.324 17.7206 7.05767 16.523 6.045 15.519C5.03233 14.515 4.228 13.622 3.632 12.84C3.03467 12.058 2.61333 11.3426 2.368 10.694C2.12267 10.0453 2 9.38898 2 8.72498C2 7.45298 2.432 6.38598 3.296 5.52398C4.16 4.66198 5.228 4.23098 6.5 4.23098C7.38 4.23098 8.205 4.45598 8.975 4.90598C9.745 5.35598 10.42 6.01031 11 6.86898C11.58 6.01031 12.255 5.35598 13.025 4.90598C13.795 4.45598 14.62 4.23065 15.5 4.22998C16.658 4.22998 17.6407 4.58998 18.448 5.30998C19.256 6.02998 19.7493 6.92631 19.928 7.99898H18.9C18.7413 7.17898 18.3447 6.51231 17.71 5.99898C17.0753 5.48565 16.3387 5.22898 15.5 5.22898C14.6887 5.22898 13.952 5.45831 13.29 5.91698C12.628 6.37565 11.999 7.06998 11.403 7.99998H10.599C9.99233 7.05798 9.35667 6.36098 8.692 5.90898C8.02733 5.45698 7.29667 5.23065 6.5 5.22998C5.52467 5.22998 4.69733 5.56231 4.018 6.22698C3.33933 6.89231 3 7.72498 3 8.72498C3 9.28765 3.11667 9.85898 3.35 10.439C3.58333 11.019 4 11.6856 4.6 12.439C5.2 13.1923 6.01667 14.0783 7.05 15.097C8.08333 16.1156 9.4 17.35 11 18.8C11.5107 18.34 12.0127 17.8853 12.506 17.436C12.9993 16.988 13.4403 16.578 13.829 16.206L13.939 16.316L14.185 16.563L14.433 16.81L14.543 16.92C14.1497 17.2913 13.7117 17.694 13.229 18.128C12.7463 18.562 12.256 19.009 11.758 19.469L11 20.154ZM17.73 17V14H14.73V13H17.73V9.99998H18.73V13H21.73V14H18.73V17H17.73Z" fill="#4F54C4"/>
</svg>
