<svg width="20" height="21" viewBox="0 0 20 21" fill="none" xmlns="http://www.w3.org/2000/svg">
<path d="M11.0347 9.05438C11.0657 8.13011 11.9387 7.29971 13.0043 7.29971C13.4486 7.29971 13.8641 7.45971 14.1809 7.62825C14.5009 7.79891 14.7675 8.00425 14.9254 8.15411C14.9762 8.2023 15.0171 8.26003 15.0456 8.32401C15.0742 8.38798 15.0898 8.45696 15.0917 8.52698C15.0936 8.59701 15.0817 8.66672 15.0566 8.73214C15.0315 8.79756 14.9938 8.8574 14.9457 8.90825C14.8975 8.95909 14.8397 8.99995 14.7758 9.02849C14.7118 9.05703 14.6428 9.07268 14.5728 9.07457C14.5028 9.07645 14.433 9.06452 14.3676 9.03946C14.3022 9.0144 14.2424 8.9767 14.1915 8.92851C14.036 8.78817 13.8639 8.66745 13.679 8.56905C13.4422 8.44265 13.2049 8.36638 13.0043 8.36638C12.4566 8.36638 12.111 8.79571 12.1014 9.09011C12.095 9.27145 12.1601 9.42131 12.3478 9.57811C12.5563 9.75145 12.9014 9.91411 13.4027 10.0538C14.0891 10.2442 14.6161 10.6053 14.8865 11.1184C15.1627 11.6426 15.1211 12.2288 14.8545 12.7413C14.7166 13.009 14.5151 13.2387 14.2678 13.4103C14.0204 13.582 13.7348 13.6903 13.4358 13.7258C12.7601 13.8106 11.9878 13.56 11.1617 12.9162C11.1064 12.8732 11.0602 12.8196 11.0256 12.7587C10.991 12.6978 10.9688 12.6306 10.9602 12.5611C10.9516 12.4915 10.9567 12.421 10.9754 12.3534C10.994 12.2859 11.0258 12.2227 11.0689 12.1674C11.1119 12.1122 11.1655 12.066 11.2264 12.0314C11.2873 11.9968 11.3545 11.9746 11.424 11.966C11.4936 11.9573 11.5641 11.9625 11.6317 11.9812C11.6992 11.9998 11.7624 12.0316 11.8177 12.0746C12.5057 12.6117 13.0006 12.705 13.303 12.6672C13.4305 12.6532 13.5526 12.6077 13.6582 12.5348C13.7637 12.4619 13.8495 12.3639 13.9078 12.2496C14.0401 11.9952 14.0305 11.7818 13.943 11.616C13.8502 11.44 13.6177 11.2202 13.1174 11.0816C12.5563 10.9253 12.0433 10.712 11.6651 10.3978C11.2667 10.0661 11.0166 9.61651 11.0353 9.05491M5.24059 7.34398C5.37242 7.2928 5.51918 7.29607 5.6486 7.35308C5.77802 7.41009 5.8795 7.51617 5.93072 7.64798L7.45019 11.5632C7.47152 11.6197 7.55152 11.6202 7.57392 11.5642L9.16432 7.64105C9.18942 7.57449 9.22758 7.51362 9.27656 7.46203C9.32554 7.41044 9.38434 7.36917 9.44951 7.34065C9.51467 7.31212 9.58489 7.29693 9.65602 7.29595C9.72715 7.29497 9.79775 7.30823 9.86368 7.33495C9.9296 7.36167 9.98952 7.40131 10.0399 7.45153C10.0903 7.50175 10.1301 7.56155 10.157 7.62739C10.1839 7.69324 10.1974 7.7638 10.1967 7.83493C10.1959 7.90607 10.1809 7.97633 10.1526 8.04158L7.99419 13.3669C7.95404 13.4659 7.88508 13.5506 7.79623 13.61C7.70739 13.6693 7.60277 13.7006 7.49592 13.6998C7.38907 13.699 7.28493 13.6662 7.19699 13.6055C7.10906 13.5448 7.04137 13.4591 7.00272 13.3594L4.93605 8.03411C4.88487 7.90228 4.88815 7.75552 4.94516 7.6261C5.00216 7.49668 5.10824 7.3952 5.24005 7.34398" fill="#4F54C4"/>
<path d="M4.66667 2.5C4.31648 2.5 3.96971 2.56898 3.64618 2.70299C3.32264 2.837 3.02867 3.03343 2.78105 3.28105C2.28095 3.78115 2 4.45942 2 5.16667V15.8333C2 16.5406 2.28095 17.2189 2.78105 17.719C3.02867 17.9666 3.32264 18.163 3.64618 18.297C3.96971 18.431 4.31648 18.5 4.66667 18.5H15.3333C16.0406 18.5 16.7189 18.219 17.219 17.719C17.719 17.2189 18 16.5406 18 15.8333V5.16667C18 4.81648 17.931 4.46971 17.797 4.14618C17.663 3.82264 17.4666 3.52867 17.219 3.28105C16.9713 3.03343 16.6774 2.837 16.3538 2.70299C16.0303 2.56898 15.6835 2.5 15.3333 2.5H4.66667ZM3.06667 5.16667C3.06667 4.74232 3.23524 4.33535 3.5353 4.0353C3.83535 3.73524 4.24232 3.56667 4.66667 3.56667H15.3333C15.7577 3.56667 16.1646 3.73524 16.4647 4.0353C16.7648 4.33535 16.9333 4.74232 16.9333 5.16667V15.8333C16.9333 16.2577 16.7648 16.6646 16.4647 16.9647C16.1646 17.2648 15.7577 17.4333 15.3333 17.4333H4.66667C4.24232 17.4333 3.83535 17.2648 3.5353 16.9647C3.23524 16.6646 3.06667 16.2577 3.06667 15.8333V5.16667Z" fill="#4F54C4"/>
</svg>
