<svg width="20" height="21" viewBox="0 0 20 21" fill="none" xmlns="http://www.w3.org/2000/svg">
<path d="M11.5 2.5C11.8103 2.49984 12.1131 2.59593 12.3665 2.77503C12.6199 2.95413 12.8116 3.20742 12.915 3.5H14.5C14.8978 3.5 15.2794 3.65804 15.5607 3.93934C15.842 4.22064 16 4.60218 16 5V8.756C15.6813 8.64267 15.348 8.56633 15 8.527V5C15 4.86739 14.9473 4.74022 14.8536 4.64645C14.7598 4.55268 14.6326 4.5 14.5 4.5H12.915C12.8116 4.79258 12.6199 5.04587 12.3665 5.22497C12.1131 5.40407 11.8103 5.50016 11.5 5.5H8.5C8.18968 5.50016 7.88694 5.40407 7.63351 5.22497C7.38008 5.04587 7.18844 4.79258 7.085 4.5H5.5C5.36739 4.5 5.24022 4.55268 5.14645 4.64645C5.05268 4.74022 5 4.86739 5 5V17C5 17.1326 5.05268 17.2598 5.14645 17.3536C5.24022 17.4473 5.36739 17.5 5.5 17.5H8.085C7.971 17.823 7.971 18.177 8.085 18.5H5.5C5.10218 18.5 4.72064 18.342 4.43934 18.0607C4.15804 17.7794 4 17.3978 4 17V5C4 4.60218 4.15804 4.22064 4.43934 3.93934C4.72064 3.65804 5.10218 3.5 5.5 3.5H7.085C7.18844 3.20742 7.38008 2.95413 7.63351 2.77503C7.88694 2.59593 8.18968 2.49984 8.5 2.5H11.5ZM8.5 3.5C8.36739 3.5 8.24022 3.55268 8.14645 3.64645C8.05268 3.74022 8 3.86739 8 4C8 4.13261 8.05268 4.25979 8.14645 4.35355C8.24022 4.44732 8.36739 4.5 8.5 4.5H11.5C11.6326 4.5 11.7598 4.44732 11.8536 4.35355C11.9473 4.25979 12 4.13261 12 4C12 3.86739 11.9473 3.74022 11.8536 3.64645C11.7598 3.55268 11.6326 3.5 11.5 3.5H8.5ZM11.697 15.096C11.1671 14.3873 10.9253 13.5043 11.0202 12.6245C11.1151 11.7447 11.5398 10.9336 12.2087 10.3543C12.8776 9.77498 13.7411 9.47055 14.6254 9.50225C15.5097 9.53395 16.3492 9.89943 16.9749 10.5251C17.6006 11.1508 17.9661 11.9903 17.9978 12.8746C18.0295 13.7589 17.725 14.6224 17.1457 15.2913C16.5664 15.9602 15.7553 16.3849 14.8755 16.4798C13.9957 16.5747 13.1127 16.3329 12.404 15.803L9.854 18.353C9.76025 18.4469 9.63304 18.4997 9.50035 18.4998C9.36767 18.4999 9.24039 18.4473 9.1465 18.3535C9.05261 18.2597 8.99982 18.1325 8.99972 17.9999C8.99963 17.8672 9.05225 17.7399 9.146 17.646L11.697 15.096ZM14.5 15.5C15.163 15.5 15.7989 15.2366 16.2678 14.7678C16.7366 14.2989 17 13.663 17 13C17 12.337 16.7366 11.7011 16.2678 11.2322C15.7989 10.7634 15.163 10.5 14.5 10.5C13.837 10.5 13.2011 10.7634 12.7322 11.2322C12.2634 11.7011 12 12.337 12 13C12 13.663 12.2634 14.2989 12.7322 14.7678C13.2011 15.2366 13.837 15.5 14.5 15.5Z" fill="#4F54C4"/>
</svg>
