<svg width="40" height="40" viewBox="0 0 40 40" fill="none" xmlns="http://www.w3.org/2000/svg">
<rect x="0.5" y="0.5" width="39" height="39" rx="19.5" stroke="#333333"/>
<path d="M22.2412 21.4626L22.2416 21.4631C22.2881 21.5262 22.353 21.6001 22.4424 21.6376C22.4937 21.659 22.5585 21.6706 22.6284 21.6541C22.6972 21.6377 22.7465 21.5999 22.778 21.5654C22.8336 21.5046 22.8532 21.434 22.8601 21.4069C22.8647 21.3887 22.8675 21.3728 22.8693 21.3613L22.8713 21.3462L22.8719 21.3407L22.8721 21.3386L22.8722 21.3376L22.8723 21.3372L22.8723 21.337C22.8723 21.3369 22.8723 21.3368 22.6233 21.3148L22.8723 21.3368L22.8754 21.3012L22.8685 21.2662C22.8093 20.9668 22.7495 20.7088 22.6927 20.4637C22.5078 19.6652 22.3546 19.0039 22.3546 17.4965V13.25H27.7468V27.75H22.2362L22.0844 27.5287L21.4862 26.6574C20.9906 25.9355 20.328 24.9706 19.6605 23.9991C18.3288 22.0609 16.9692 20.0842 16.8866 19.9731C16.8402 19.9108 16.7754 19.8381 16.6859 19.8015C16.6349 19.7806 16.5715 19.7699 16.5036 19.7855C16.4368 19.8008 16.388 19.8365 16.356 19.87C16.2993 19.9292 16.2782 19.9986 16.2706 20.0259C16.2656 20.044 16.2624 20.0598 16.2605 20.0713C16.2595 20.0772 16.2587 20.0823 16.2582 20.0864L16.2574 20.0919L16.2572 20.0941L16.2571 20.0951L16.257 20.0955L16.257 20.0957C16.257 20.0958 16.257 20.0959 16.5056 20.1223L16.257 20.0959L16.253 20.1334L16.2603 20.1705C16.3108 20.4281 16.36 20.6337 16.4045 20.8196L16.408 20.8341C16.4535 21.0243 16.4934 21.1925 16.5272 21.3829C16.5942 21.7607 16.639 22.2374 16.639 23.1275V27.75H11.25V13.25H16.7774L16.9344 13.4867L17.5453 14.4072C18.0515 15.1699 18.7282 16.189 19.4098 17.215C20.769 19.261 22.1578 21.3487 22.2412 21.4626Z" stroke="#333333" stroke-width="0.5"/>
</svg>
