<svg width="19" height="18" viewBox="0 0 19 18" fill="none" xmlns="http://www.w3.org/2000/svg">
<path fill-rule="evenodd" clip-rule="evenodd" d="M4.25 3.75C4.44891 3.75 4.63968 3.67098 4.78033 3.53033C4.92098 3.38968 5 3.19891 5 3C5 2.80109 5.07902 2.61032 5.21967 2.46967C5.36032 2.32902 5.55109 2.25 5.75 2.25C5.94891 2.25 6.13968 2.32902 6.28033 2.46967C6.42098 2.61032 6.5 2.80109 6.5 3C6.5 3.19891 6.57902 3.38968 6.71967 3.53033C6.86032 3.67098 7.05109 3.75 7.25 3.75H8C8.19891 3.75 8.38968 3.67098 8.53033 3.53033C8.67098 3.38968 8.75 3.19891 8.75 3C8.75 2.80109 8.82902 2.61032 8.96967 2.46967C9.11032 2.32902 9.30109 2.25 9.5 2.25C9.69891 2.25 9.88968 2.32902 10.0303 2.46967C10.171 2.61032 10.25 2.80109 10.25 3C10.25 3.19891 10.329 3.38968 10.4697 3.53033C10.6103 3.67098 10.8011 3.75 11 3.75H11.75C11.9489 3.75 12.1397 3.67098 12.2803 3.53033C12.421 3.38968 12.5 3.19891 12.5 3C12.5 2.80109 12.579 2.61032 12.7197 2.46967C12.8603 2.32902 13.0511 2.25 13.25 2.25C13.4489 2.25 13.6397 2.32902 13.7803 2.46967C13.921 2.61032 14 2.80109 14 3C14 3.19891 14.079 3.38968 14.2197 3.53033C14.3603 3.67098 14.5511 3.75 14.75 3.75C15.1478 3.75 15.5294 3.90804 15.8107 4.18934C16.092 4.47064 16.25 4.85218 16.25 5.25V6C16.25 6.19891 16.171 6.38968 16.0303 6.53033C15.8897 6.67098 15.6989 6.75 15.5 6.75H3.5C3.30109 6.75 3.11032 6.67098 2.96967 6.53033C2.82902 6.38968 2.75 6.19891 2.75 6V5.25C2.75 4.85218 2.90804 4.47064 3.18934 4.18934C3.47064 3.90804 3.85218 3.75 4.25 3.75ZM2.75 14.25V9C2.75 8.80109 2.82902 8.61032 2.96967 8.46967C3.11032 8.32902 3.30109 8.25 3.5 8.25H15.5C15.6989 8.25 15.8897 8.32902 16.0303 8.46967C16.171 8.61032 16.25 8.80109 16.25 9V14.25C16.25 14.6478 16.092 15.0294 15.8107 15.3107C15.5294 15.592 15.1478 15.75 14.75 15.75H4.25C3.85218 15.75 3.47064 15.592 3.18934 15.3107C2.90804 15.0294 2.75 14.6478 2.75 14.25ZM7.2575 9.75C7.2575 9.55109 7.17848 9.36032 7.03783 9.21967C6.89718 9.07902 6.70641 9 6.5075 9C6.30859 9 6.11782 9.07902 5.97717 9.21967C5.83652 9.36032 5.7575 9.55109 5.7575 9.75C5.7575 9.94891 5.83652 10.1397 5.97717 10.2803C6.11782 10.421 6.30859 10.5 6.5075 10.5C6.70641 10.5 6.89718 10.421 7.03783 10.2803C7.17848 10.1397 7.2575 9.94891 7.2575 9.75ZM8.7575 9.75C8.7575 9.55109 8.83652 9.36032 8.97717 9.21967C9.11782 9.07902 9.30859 9 9.5075 9C9.70641 9 9.89718 9.07902 10.0378 9.21967C10.1785 9.36032 10.2575 9.55109 10.2575 9.75C10.2575 9.94891 10.1785 10.1397 10.0378 10.2803C9.89718 10.421 9.70641 10.5 9.5075 10.5C9.30859 10.5 9.11782 10.421 8.97717 10.2803C8.83652 10.1397 8.7575 9.94891 8.7575 9.75ZM13.2575 9.75C13.2575 9.55109 13.1785 9.36032 13.0378 9.21967C12.8972 9.07902 12.7064 9 12.5075 9C12.3086 9 12.1178 9.07902 11.9772 9.21967C11.8365 9.36032 11.7575 9.55109 11.7575 9.75C11.7575 9.94891 11.8365 10.1397 11.9772 10.2803C12.1178 10.421 12.3086 10.5 12.5075 10.5C12.7064 10.5 12.8972 10.421 13.0378 10.2803C13.1785 10.1397 13.2575 9.94891 13.2575 9.75ZM5.7575 12.75C5.7575 12.5511 5.83652 12.3603 5.97717 12.2197C6.11782 12.079 6.30859 12 6.5075 12C6.70641 12 6.89718 12.079 7.03783 12.2197C7.17848 12.3603 7.2575 12.5511 7.2575 12.75C7.2575 12.9489 7.17848 13.1397 7.03783 13.2803C6.89718 13.421 6.70641 13.5 6.5075 13.5C6.30859 13.5 6.11782 13.421 5.97717 13.2803C5.83652 13.1397 5.7575 12.9489 5.7575 12.75ZM10.2575 12.75C10.2575 12.5511 10.1785 12.3603 10.0378 12.2197C9.89718 12.079 9.70641 12 9.5075 12C9.30859 12 9.11782 12.079 8.97717 12.2197C8.83652 12.3603 8.7575 12.5511 8.7575 12.75C8.7575 12.9489 8.83652 13.1397 8.97717 13.2803C9.11782 13.421 9.30859 13.5 9.5075 13.5C9.70641 13.5 9.89718 13.421 10.0378 13.2803C10.1785 13.1397 10.2575 12.9489 10.2575 12.75ZM11.7575 12.75C11.7575 12.5511 11.8365 12.3603 11.9772 12.2197C12.1178 12.079 12.3086 12 12.5075 12C12.7064 12 12.8972 12.079 13.0378 12.2197C13.1785 12.3603 13.2575 12.5511 13.2575 12.75C13.2575 12.9489 13.1785 13.1397 13.0378 13.2803C12.8972 13.421 12.7064 13.5 12.5075 13.5C12.3086 13.5 12.1178 13.421 11.9772 13.2803C11.8365 13.1397 11.7575 12.9489 11.7575 12.75Z" fill="#C0D5EB"/>
</svg>
