<svg width="21" height="20" viewBox="0 0 21 20" fill="none" xmlns="http://www.w3.org/2000/svg">
<path d="M7.99984 4.16675H6.33317C5.89114 4.16675 5.46722 4.34234 5.15466 4.6549C4.8421 4.96746 4.6665 5.39139 4.6665 5.83341V15.8334C4.6665 16.2754 4.8421 16.6994 5.15466 17.0119C5.46722 17.3245 5.89114 17.5001 6.33317 17.5001H14.6665C15.1085 17.5001 15.5325 17.3245 15.845 17.0119C16.1576 16.6994 16.3332 16.2754 16.3332 15.8334V5.83341C16.3332 5.39139 16.1576 4.96746 15.845 4.6549C15.5325 4.34234 15.1085 4.16675 14.6665 4.16675H12.9998" stroke="white" stroke-linecap="round" stroke-linejoin="round"/>
<path d="M8 14.1667V10M10.5 14.1667V13.3333M13 14.1667V11.6667M8 4.16667C8 3.72464 8.1756 3.30072 8.48816 2.98816C8.80072 2.67559 9.22464 2.5 9.66667 2.5H11.3333C11.7754 2.5 12.1993 2.67559 12.5118 2.98816C12.8244 3.30072 13 3.72464 13 4.16667C13 4.60869 12.8244 5.03262 12.5118 5.34518C12.1993 5.65774 11.7754 5.83333 11.3333 5.83333H9.66667C9.22464 5.83333 8.80072 5.65774 8.48816 5.34518C8.1756 5.03262 8 4.60869 8 4.16667Z" stroke="white" stroke-linecap="round" stroke-linejoin="round"/>
</svg>
