<svg width="18" height="18" viewBox="0 0 18 18" fill="none" xmlns="http://www.w3.org/2000/svg">
<path d="M7.40925 5.63925C8.28825 4.8705 9.7125 4.8705 10.5915 5.63925C11.4697 6.408 11.4697 7.6545 10.5915 8.42325C10.4375 8.55725 10.27 8.66775 10.089 8.75475C9.5295 9.0255 9 9.504 9 10.125V10.6875M15.75 9C15.75 9.88642 15.5754 10.7642 15.2362 11.5831C14.897 12.4021 14.3998 13.1462 13.773 13.773C13.1462 14.3998 12.4021 14.897 11.5831 15.2362C10.7642 15.5754 9.88642 15.75 9 15.75C8.11358 15.75 7.23583 15.5754 6.41689 15.2362C5.59794 14.897 4.85382 14.3998 4.22703 13.773C3.60023 13.1462 3.10303 12.4021 2.76381 11.5831C2.42459 10.7642 2.25 9.88642 2.25 9C2.25 7.20979 2.96116 5.4929 4.22703 4.22703C5.4929 2.96116 7.20979 2.25 9 2.25C10.7902 2.25 12.5071 2.96116 13.773 4.22703C15.0388 5.4929 15.75 7.20979 15.75 9ZM9 12.9375H9.006V12.9435H9V12.9375Z" stroke="#4F54C4" stroke-linecap="round" stroke-linejoin="round"/>
</svg>
