<svg width="20" height="20" viewBox="0 0 20 20" fill="none" xmlns="http://www.w3.org/2000/svg">
<path d="M13.375 14.962C13.4847 14.8872 13.5601 14.7719 13.5848 14.6415C13.6095 14.5111 13.5813 14.3762 13.5065 14.2665C13.4317 14.1568 13.3164 14.0814 13.186 14.0567C13.0556 14.0321 12.9207 14.0602 12.811 14.135C11.8877 14.7626 10.781 15.0632 9.66708 14.9889C8.55316 14.9146 7.49616 14.4696 6.66449 13.7248C5.83281 12.9801 5.27431 11.9784 5.07795 10.8794C4.8816 9.78042 5.05869 8.64733 5.58102 7.66066C6.10334 6.67399 6.94085 5.89051 7.96011 5.43505C8.97937 4.97958 10.1217 4.87833 11.2052 5.14743C12.2887 5.41653 13.2509 6.04049 13.9387 6.91991C14.6264 7.79933 15 8.88361 15 10C15 10.1326 15.0527 10.2598 15.1465 10.3536C15.2402 10.4473 15.3674 10.5 15.5 10.5C15.6326 10.5 15.7598 10.4473 15.8536 10.3536C15.9473 10.2598 16 10.1326 16 10C15.9999 8.66032 15.5514 7.3592 14.726 6.30397C13.9007 5.24873 12.7459 4.50008 11.4456 4.1773C10.1454 3.85452 8.77455 3.97617 7.55149 4.52289C6.32843 5.0696 5.32352 6.00991 4.69687 7.194C4.07021 8.3781 3.85788 9.73786 4.09368 11.0566C4.32949 12.3754 4.99987 13.5773 5.99802 14.4709C6.99618 15.3645 8.26467 15.8983 9.6014 15.9873C10.9381 16.0763 12.2662 15.7154 13.374 14.962" fill="white"/>
<path d="M12.7688 8.41504C12.7135 8.37786 12.6514 8.3521 12.586 8.33927C12.5206 8.32645 12.4534 8.32681 12.3881 8.34035C12.3229 8.35389 12.2611 8.38032 12.2062 8.4181C12.1513 8.45588 12.1046 8.50424 12.0686 8.56035C12.0327 8.61645 12.0084 8.67917 11.997 8.74481C11.9857 8.81046 11.9876 8.87771 12.0026 8.94261C12.0176 9.00751 12.0455 9.06876 12.0845 9.12275C12.1235 9.17675 12.1729 9.2224 12.2298 9.25704L15.7118 11.484C15.7671 11.5212 15.8292 11.547 15.8946 11.5598C15.96 11.5726 16.0272 11.5723 16.0925 11.5587C16.1577 11.5452 16.2196 11.5187 16.2744 11.481C16.3293 11.4432 16.3761 11.3948 16.412 11.3387C16.4479 11.2826 16.4722 11.2199 16.4836 11.1543C16.4949 11.0886 16.493 11.0214 16.478 10.9565C16.463 10.8916 16.4351 10.8303 16.3961 10.7763C16.3571 10.7223 16.3077 10.6767 16.2508 10.642L12.7688 8.41504Z" fill="white"/>
<path d="M17.9469 7.88601C17.9966 7.76567 17.9973 7.6307 17.949 7.5098C17.9007 7.38891 17.8072 7.29161 17.6883 7.2386C17.5694 7.1856 17.4345 7.18106 17.3123 7.22595C17.1901 7.27085 17.0902 7.36163 17.0339 7.47901L15.5249 10.859C15.4981 10.919 15.4834 10.9837 15.4816 11.0494C15.4798 11.1151 15.491 11.1805 15.5145 11.2419C15.538 11.3033 15.5734 11.3594 15.6186 11.4072C15.6637 11.4549 15.7179 11.4932 15.7779 11.52C15.8379 11.5468 15.9026 11.5615 15.9683 11.5633C16.034 11.5651 16.0994 11.5539 16.1608 11.5304C16.2222 11.5069 16.2783 11.4716 16.3261 11.4264C16.3738 11.3812 16.4121 11.327 16.4389 11.267L17.9469 7.88601Z" fill="white"/>
</svg>
