<svg width="21" height="20" viewBox="0 0 21 20" fill="none" xmlns="http://www.w3.org/2000/svg">
<path d="M13.875 14.962C13.9847 14.8872 14.0601 14.7719 14.0848 14.6415C14.1095 14.5111 14.0813 14.3762 14.0065 14.2665C13.9317 14.1568 13.8164 14.0814 13.686 14.0567C13.5556 14.0321 13.4207 14.0602 13.311 14.135C12.3877 14.7626 11.281 15.0632 10.1671 14.9889C9.05316 14.9146 7.99616 14.4696 7.16449 13.7248C6.33281 12.9801 5.77431 11.9784 5.57795 10.8794C5.3816 9.78042 5.55869 8.64733 6.08102 7.66066C6.60334 6.67399 7.44085 5.89051 8.46011 5.43505C9.47937 4.97958 10.6217 4.87833 11.7052 5.14743C12.7887 5.41653 13.7509 6.04049 14.4387 6.91991C15.1264 7.79933 15.5 8.88361 15.5 10C15.5 10.1326 15.5527 10.2598 15.6465 10.3536C15.7402 10.4473 15.8674 10.5 16 10.5C16.1326 10.5 16.2598 10.4473 16.3536 10.3536C16.4473 10.2598 16.5 10.1326 16.5 10C16.4999 8.66032 16.0514 7.3592 15.226 6.30397C14.4007 5.24873 13.2459 4.50008 11.9456 4.1773C10.6454 3.85452 9.27455 3.97617 8.05149 4.52289C6.82843 5.0696 5.82352 6.00991 5.19687 7.194C4.57021 8.3781 4.35788 9.73786 4.59368 11.0566C4.82949 12.3754 5.49987 13.5773 6.49802 14.4709C7.49618 15.3645 8.76467 15.8983 10.1014 15.9873C11.4381 16.0763 12.7662 15.7154 13.874 14.962" fill="#999999"/>
<path d="M13.2688 8.41504C13.2135 8.37786 13.1514 8.3521 13.086 8.33927C13.0206 8.32645 12.9534 8.32681 12.8881 8.34035C12.8229 8.35389 12.7611 8.38032 12.7062 8.4181C12.6513 8.45588 12.6046 8.50424 12.5686 8.56035C12.5327 8.61645 12.5084 8.67917 12.497 8.74481C12.4857 8.81046 12.4876 8.87771 12.5026 8.94261C12.5176 9.00751 12.5455 9.06876 12.5845 9.12275C12.6235 9.17675 12.6729 9.2224 12.7298 9.25704L16.2118 11.484C16.2671 11.5212 16.3292 11.547 16.3946 11.5598C16.46 11.5726 16.5272 11.5723 16.5925 11.5587C16.6577 11.5452 16.7196 11.5187 16.7744 11.481C16.8293 11.4432 16.8761 11.3948 16.912 11.3387C16.9479 11.2826 16.9722 11.2199 16.9836 11.1543C16.9949 11.0886 16.993 11.0214 16.978 10.9565C16.963 10.8916 16.9351 10.8303 16.8961 10.7763C16.8571 10.7223 16.8077 10.6767 16.7508 10.642L13.2688 8.41504Z" fill="#999999"/>
<path d="M18.4469 7.88601C18.4966 7.76567 18.4973 7.6307 18.449 7.5098C18.4007 7.38891 18.3072 7.29161 18.1883 7.2386C18.0694 7.1856 17.9345 7.18106 17.8123 7.22595C17.6901 7.27085 17.5902 7.36163 17.5339 7.47901L16.0249 10.859C15.9981 10.919 15.9834 10.9837 15.9816 11.0494C15.9798 11.1151 15.991 11.1805 16.0145 11.2419C16.038 11.3033 16.0734 11.3594 16.1186 11.4072C16.1637 11.4549 16.2179 11.4932 16.2779 11.52C16.3379 11.5468 16.4026 11.5615 16.4683 11.5633C16.534 11.5651 16.5994 11.5539 16.6608 11.5304C16.7222 11.5069 16.7783 11.4716 16.8261 11.4264C16.8738 11.3812 16.9121 11.327 16.9389 11.267L18.4469 7.88601Z" fill="#999999"/>
</svg>
