<svg width="85" height="20" viewBox="0 0 85 20" fill="none" xmlns="http://www.w3.org/2000/svg">
<path d="M7.464 0.519999C8.568 0.519999 9.6 0.639999 10.56 0.879999C11.52 1.104 12.352 1.488 13.056 2.032C13.776 2.576 14.344 3.304 14.76 4.216C15.176 5.112 15.384 6.232 15.384 7.576V12.304C15.384 13.664 15.176 14.8 14.76 15.712C14.344 16.608 13.776 17.328 13.056 17.872C12.352 18.416 11.52 18.8 10.56 19.024C9.6 19.248 8.568 19.36 7.464 19.36H1.704C1.368 19.36 1.2 19.2 1.2 18.88V6.088C1.2 5.768 1.36 5.608 1.68 5.608H5.592C5.944 5.608 6.12 5.768 6.12 6.088V14.992H7.44C8.384 14.992 9.128 14.768 9.672 14.32C10.232 13.856 10.512 13.128 10.512 12.136V7.744C10.512 6.752 10.232 6.032 9.672 5.584C9.128 5.12 8.384 4.888 7.44 4.888H1.2C0.864 4.888 0.696 4.728 0.696 4.408V0.999999C0.696 0.679999 0.864 0.519999 1.2 0.519999H7.464ZM30.3999 18.88C30.3999 19.2 30.2399 19.36 29.9199 19.36H26.1039C25.7679 19.36 25.5999 19.2 25.5999 18.88V10.504C25.3919 10.36 25.1759 10.256 24.9519 10.192C24.7279 10.128 24.5119 10.096 24.3039 10.096C23.5359 10.096 22.9359 10.304 22.5039 10.72C22.0879 11.136 21.8799 11.8 21.8799 12.712C21.8799 13.656 22.0879 14.344 22.5039 14.776C22.9359 15.192 23.5359 15.4 24.3039 15.4H24.3999C24.7199 15.4 24.8799 15.568 24.8799 15.904V18.88C24.8799 19.2 24.7199 19.36 24.3999 19.36H24.3039C23.2159 19.36 22.2319 19.232 21.3519 18.976C20.4719 18.72 19.7199 18.328 19.0959 17.8C18.4879 17.272 18.0159 16.616 17.6799 15.832C17.3439 15.032 17.1759 14.096 17.1759 13.024V12.544C17.1759 11.504 17.3279 10.584 17.6319 9.784C17.9359 8.984 18.3519 8.32 18.8799 7.792C19.4079 7.248 20.0319 6.84 20.7519 6.568C21.4879 6.296 22.2799 6.16 23.1279 6.16C23.5439 6.16 23.9679 6.224 24.3999 6.352C24.8479 6.464 25.2479 6.648 25.5999 6.904V6.76C25.5999 6.44 25.7679 6.28 26.1039 6.28H29.9199C30.2399 6.28 30.3999 6.44 30.3999 6.76V18.88ZM37.3566 18.856C37.3566 19.192 37.1966 19.36 36.8766 19.36H33.0366C32.7166 19.36 32.5566 19.192 32.5566 18.856V0.495999C32.5566 0.191999 32.7166 0.0399995 33.0366 0.0399995H36.8526C37.1886 0.0399995 37.3566 0.191999 37.3566 0.495999V18.856ZM44.5575 18.856C44.5575 19.192 44.3895 19.36 44.0535 19.36H40.1175C39.7975 19.36 39.6375 19.192 39.6375 18.856V0.975999C39.6375 0.671999 39.7975 0.519999 40.1175 0.519999H44.0535C44.3895 0.519999 44.5575 0.671999 44.5575 0.975999V7.288L48.4695 0.904C48.5495 0.776 48.6295 0.679999 48.7095 0.615999C48.7895 0.551999 48.8935 0.519999 49.0215 0.519999H53.8455C54.0215 0.519999 54.1415 0.575999 54.2055 0.688C54.2855 0.783999 54.2695 0.919999 54.1575 1.096L44.5575 15.304V18.856ZM49.8375 19.36C49.5335 19.36 49.3495 19.232 49.2855 18.976L46.6935 14.056C46.6455 13.96 46.6135 13.856 46.5975 13.744C46.5975 13.616 46.6375 13.496 46.7175 13.384L49.0935 9.88C49.3175 9.528 49.5335 9.528 49.7415 9.88L54.9735 18.808C55.1335 19.176 55.0135 19.36 54.6135 19.36H49.8375ZM68.1578 18.88C68.1578 19.2 67.9978 19.36 67.6778 19.36H63.8618C63.5258 19.36 63.3578 19.2 63.3578 18.88V10.504C63.1498 10.36 62.9338 10.256 62.7098 10.192C62.4858 10.128 62.2698 10.096 62.0618 10.096C61.2938 10.096 60.6938 10.304 60.2617 10.72C59.8458 11.136 59.6378 11.8 59.6378 12.712C59.6378 13.656 59.8458 14.344 60.2617 14.776C60.6938 15.192 61.2938 15.4 62.0618 15.4H62.1578C62.4778 15.4 62.6378 15.568 62.6378 15.904V18.88C62.6378 19.2 62.4778 19.36 62.1578 19.36H62.0618C60.9738 19.36 59.9898 19.232 59.1098 18.976C58.2298 18.72 57.4778 18.328 56.8538 17.8C56.2458 17.272 55.7738 16.616 55.4378 15.832C55.1018 15.032 54.9338 14.096 54.9338 13.024V12.544C54.9338 11.504 55.0858 10.584 55.3898 9.784C55.6938 8.984 56.1098 8.32 56.6378 7.792C57.1658 7.248 57.7898 6.84 58.5098 6.568C59.2458 6.296 60.0378 6.16 60.8858 6.16C61.3018 6.16 61.7258 6.224 62.1578 6.352C62.6058 6.464 63.0058 6.648 63.3578 6.904V6.76C63.3578 6.44 63.5258 6.28 63.8618 6.28H67.6778C67.9978 6.28 68.1578 6.44 68.1578 6.76V18.88ZM75.1144 18.856C75.1144 19.192 74.9544 19.36 74.6344 19.36H70.7944C70.4744 19.36 70.3144 19.192 70.3144 18.856V0.495999C70.3144 0.191999 70.4744 0.0399995 70.7944 0.0399995H74.6104C74.9464 0.0399995 75.1144 0.191999 75.1144 0.495999V10.384L77.4664 6.664C77.5464 6.536 77.6264 6.44 77.7064 6.376C77.7864 6.312 77.8904 6.28 78.0184 6.28H82.7944C82.9704 6.28 83.0904 6.336 83.1544 6.448C83.2344 6.544 83.2184 6.672 83.1064 6.832L75.1144 17.08V18.856ZM79.1224 19.36C78.8824 19.36 78.6824 19.232 78.5224 18.976L77.1064 16.336C77.0584 16.24 77.0264 16.136 77.0104 16.024C77.0104 15.896 77.0504 15.776 77.1304 15.664L79.4104 12.736C79.6344 12.384 79.8504 12.384 80.0584 12.736L84.1144 18.808C84.2264 18.952 84.2424 19.08 84.1624 19.192C84.0984 19.304 83.9784 19.36 83.8024 19.36H79.1224Z" fill="#23274A"/>
</svg>
